<svg width="60" height="60" viewBox="0 0 60 60" fill="none" xmlns="http://www.w3.org/2000/svg">
<path d="M23.8158 40.4607C32.4315 40.4607 39.4158 33.4764 39.4158 24.8607C39.4158 16.2451 32.4315 9.26074 23.8158 9.26074C15.2002 9.26074 8.21582 16.2451 8.21582 24.8607C8.21582 33.4764 15.2002 40.4607 23.8158 40.4607Z" fill="#EAEAEA"/>
<path d="M17.8159 18.8608H41.0159V50.8608H17.8159V18.8608Z" fill="#C1DBDC"/>
<path d="M41.0161 51.6608H17.8161C17.3739 51.6608 17.0161 51.3026 17.0161 50.8608V18.8608C17.0161 18.419 17.3739 18.0608 17.8161 18.0608H41.0161C41.4583 18.0608 41.8161 18.419 41.8161 18.8608V50.8608C41.8161 51.3026 41.4583 51.6608 41.0161 51.6608ZM18.6161 50.0608H40.2161V19.6608H18.6161V50.0608Z" fill="#4C241D"/>
<path d="M22.2847 33.1211L31.4628 42.2992L17.3078 56.4542L8.12966 47.2761L22.2847 33.1211Z" fill="white"/>
<path d="M16.7337 57.0287L7.56604 47.861C7.25336 47.5483 7.25364 47.042 7.56604 46.7296L21.7297 32.5657C22.0421 32.2533 22.5484 32.253 22.8611 32.5657L32.0287 41.7334C32.3414 42.0461 32.3412 42.5524 32.0288 42.8648L17.8651 57.0287C17.5527 57.3411 17.0464 57.3413 16.7337 57.0287ZM9.26309 47.2953L17.2994 55.3316L30.3317 42.2991L22.2954 34.2627L9.26309 47.2953Z" fill="#4C241D"/>
<path d="M49.8156 11.6607C49.3734 11.6607 49.0156 11.3025 49.0156 10.8607V9.26069C49.0156 8.81889 49.3734 8.46069 49.8156 8.46069C50.2578 8.46069 50.6156 8.81889 50.6156 9.26069V10.8607C50.6156 11.3025 50.2578 11.6607 49.8156 11.6607Z" fill="#4C241D"/>
<path d="M49.8156 16.4607C49.3734 16.4607 49.0156 16.1025 49.0156 15.6607V14.0607C49.0156 13.6189 49.3734 13.2607 49.8156 13.2607C50.2578 13.2607 50.6156 13.6189 50.6156 14.0607V15.6607C50.6156 16.1025 50.2578 16.4607 49.8156 16.4607Z" fill="#4C241D"/>
<path d="M48.2154 13.2606H46.6154C46.1732 13.2606 45.8154 12.9024 45.8154 12.4606C45.8154 12.0188 46.1732 11.6606 46.6154 11.6606H48.2154C48.6576 11.6606 49.0154 12.0188 49.0154 12.4606C49.0154 12.9024 48.6576 13.2606 48.2154 13.2606Z" fill="#4C241D"/>
<path d="M53.0157 13.2606H51.4157C50.9735 13.2606 50.6157 12.9024 50.6157 12.4606C50.6157 12.0188 50.9735 11.6606 51.4157 11.6606H53.0157C53.4579 11.6606 53.8157 12.0188 53.8157 12.4606C53.8157 12.9024 53.4579 13.2606 53.0157 13.2606Z" fill="#4C241D"/>
<path d="M40.674 8.88448C41.1464 8.88448 41.5292 8.50159 41.5292 8.02927C41.5292 7.55696 41.1464 7.17407 40.674 7.17407C40.2017 7.17407 39.8188 7.55696 39.8188 8.02927C39.8188 8.50159 40.2017 8.88448 40.674 8.88448Z" fill="#4C241D"/>
<path d="M37.5509 30.8564L42.0833 26.324C42.0833 26.324 44.9999 27.6481 46.2498 26.324C47.4997 25 46.6157 21.7916 46.6157 21.7916L42.2525 17.4284C42.2525 17.4284 39.4997 16 37.7201 17.5429C35.9406 19.0859 37.7201 21.9608 37.7201 21.9608L33.1877 26.4932C31.9069 25.516 30.0763 25.5992 28.9057 26.7698C27.6297 28.0458 27.6297 30.1144 28.9057 31.3902C29.6795 32.164 30.7443 32.461 31.7477 32.2962C31.5829 33.2996 31.8799 34.3644 32.6537 35.1382C33.9297 36.4142 35.9983 36.4142 37.2743 35.1382C38.4449 33.9678 38.5281 32.1372 37.5509 30.8564Z" fill="white"/>
<path d="M36.934 21.6156L33.0718 25.4774L33.753 27.059L37.4996 23.3124L38.4996 22C38.1872 21.6876 37.2464 21.3032 36.934 21.6156Z" fill="#4C241D"/>
<path d="M32.0882 35.7044C32.8812 36.4974 33.9226 36.8937 34.964 36.8937C36.0054 36.8937 37.0468 36.4972 37.8396 35.7042C39.0982 34.4455 39.363 32.5156 38.567 30.9718L36.985 30.291C36.7014 30.5742 36.6716 31.0234 36.9146 31.3418C37.6608 32.3198 37.5724 33.709 36.7084 34.573C35.746 35.5348 34.1818 35.535 33.2194 34.5726C32.6546 34.0082 32.4054 33.2258 32.5366 32.4262C32.5788 32.1718 32.4952 31.9128 32.3132 31.7308C32.1616 31.5796 31.9578 31.4964 31.7476 31.4964C31.7046 31.4964 31.661 31.5 31.6178 31.507C30.8202 31.6374 30.0366 31.3894 29.471 30.825C28.5092 29.863 28.5092 28.2978 29.471 27.336C30.3342 26.4732 31.7226 26.3834 32.7022 27.1294C33.0186 27.3726 33.4702 27.3426 33.753 27.059L33.0718 25.4774C31.5274 24.6798 29.5976 24.947 28.3398 26.2044C26.7546 27.7904 26.7546 30.3704 28.3398 31.9568C29.032 32.6482 29.9508 33.0586 30.9148 33.129C30.9858 34.0934 31.396 35.013 32.0882 35.7044Z" fill="#4C241D"/>
<path d="M42.4284 27.11C42.7408 26.7976 42.312 25.8124 41.9996 25.5L40.7316 26.5444L36.985 30.291L38.567 30.9718L42.4284 27.11Z" fill="#4C241D"/>
<path d="M43.0622 17.1893C42.2692 16.3963 41.2278 15.9999 40.1864 15.9999C39.145 15.9999 38.1036 16.3965 37.3108 17.1895C36.0522 18.4481 35.7874 20.3781 36.5834 21.9219L38.1654 22.6027C38.449 22.3195 38.4788 21.8703 38.2358 21.5519C37.4896 20.5739 37.578 19.1847 38.442 18.3207C39.4044 17.3589 40.9686 17.3587 41.931 18.3211C42.4958 18.8855 42.745 19.6679 42.6138 20.4675C42.5716 20.7219 42.6552 20.9809 42.8372 21.1629C42.9888 21.3141 43.1926 21.3973 43.4028 21.3973C43.4458 21.3973 43.4894 21.3937 43.5326 21.3867C44.3302 21.2563 45.1138 21.5043 45.6794 22.0687C46.6412 23.0307 46.6412 24.5959 45.6794 25.5577C44.8162 26.4205 43.4278 26.5103 42.4482 25.7643C42.1318 25.5211 41.6802 25.5511 41.3974 25.8347L42.0786 27.4163C43.623 28.2139 45.5528 27.9467 46.8106 26.6893C48.3958 25.1033 48.3958 22.5233 46.8106 20.9369C46.1184 20.2455 45.1996 19.8351 44.2356 19.7647C44.1646 18.8003 43.7544 17.8807 43.0622 17.1893Z" fill="#4C241D"/>
<path d="M14.8959 17.3236C14.6913 17.3236 14.4865 17.2454 14.3303 17.0892L10.6279 13.387C10.3155 13.0746 10.3155 12.5682 10.6279 12.2558C10.9403 11.9434 11.4467 11.9434 11.7591 12.2558L15.4615 15.9582C15.7739 16.2706 15.7739 16.777 15.4615 17.0894C15.3051 17.2454 15.1005 17.3236 14.8959 17.3236Z" fill="#4C241D"/>
<path d="M19.1056 14.6062C18.708 14.6062 18.3634 14.3104 18.3126 13.9058L17.661 8.71082C17.6064 8.27262 17.9164 7.87262 18.3556 7.81742C18.7962 7.76082 19.1938 8.07322 19.2486 8.51162L19.9002 13.7066C19.9548 14.1448 19.6448 14.5448 19.2056 14.6C19.172 14.6042 19.1384 14.6062 19.1056 14.6062Z" fill="#4C241D"/>
<path d="M12.179 21.5342C12.1462 21.5342 12.1126 21.5322 12.079 21.528L6.88443 20.8764C6.44543 20.8214 6.13523 20.4214 6.18983 19.983C6.24443 19.5446 6.64063 19.2302 7.08283 19.2888L12.2774 19.9404C12.7164 19.9954 13.0266 20.3954 12.972 20.8338C12.9212 21.2384 12.5768 21.5342 12.179 21.5342Z" fill="#4C241D"/>
</svg>
