<svg width="60" height="60" viewBox="0 0 60 60" fill="none" xmlns="http://www.w3.org/2000/svg">
<path d="M22.6769 44.0323C31.2925 44.0323 38.2769 37.0479 38.2769 28.4323C38.2769 19.8166 31.2925 12.8323 22.6769 12.8323C14.0613 12.8323 7.0769 19.8166 7.0769 28.4323C7.0769 37.0479 14.0613 44.0323 22.6769 44.0323Z" fill="#EAEAEA"/>
<path d="M11.8769 10.4322C11.4351 10.4322 11.0769 10.074 11.0769 9.63217V8.03218C11.0769 7.59038 11.4351 7.23218 11.8769 7.23218C12.3187 7.23218 12.6769 7.59038 12.6769 8.03218V9.63217C12.6769 10.074 12.3187 10.4322 11.8769 10.4322Z" fill="#4C241D"/>
<path d="M11.8769 15.2322C11.4351 15.2322 11.0769 14.874 11.0769 14.4322V12.8322C11.0769 12.3904 11.4351 12.0322 11.8769 12.0322C12.3187 12.0322 12.6769 12.3904 12.6769 12.8322V14.4322C12.6769 14.874 12.3187 15.2322 11.8769 15.2322Z" fill="#4C241D"/>
<path d="M10.2769 12.0321H8.67695C8.23515 12.0321 7.87695 11.6739 7.87695 11.2321C7.87695 10.7903 8.23515 10.4321 8.67695 10.4321H10.2769C10.7187 10.4321 11.0769 10.7903 11.0769 11.2321C11.0769 11.6739 10.7187 12.0321 10.2769 12.0321Z" fill="#4C241D"/>
<path d="M15.077 12.0321H13.477C13.0352 12.0321 12.677 11.6739 12.677 11.2321C12.677 10.7903 13.0352 10.4321 13.477 10.4321H15.077C15.5188 10.4321 15.877 10.7903 15.877 11.2321C15.877 11.6739 15.5188 12.0321 15.077 12.0321Z" fill="#4C241D"/>
<path d="M21.4973 10.7407C21.9696 10.7407 22.3525 10.3578 22.3525 9.88547C22.3525 9.41316 21.9696 9.03027 21.4973 9.03027C21.025 9.03027 20.6421 9.41316 20.6421 9.88547C20.6421 10.3578 21.025 10.7407 21.4973 10.7407Z" fill="#4C241D"/>
<path fill-rule="evenodd" clip-rule="evenodd" d="M44.8811 33.7006C44.7006 32.9655 44.2445 32.3445 43.597 31.9524C42.9494 31.5603 42.1881 31.4437 41.4528 31.6243L40.1253 31.9503C40.1347 31.8437 40.1324 31.6873 40.1325 31.5789C40.1325 30.2042 39.1117 29.0588 37.7718 28.8257V27.3926C39.1117 27.1596 40.1325 26.0142 40.1325 24.6395V24.4507C40.1325 24.3038 40.1186 24.1576 40.0936 24.013L42.8047 23.3472C44.3223 22.9745 45.2538 21.4365 44.8811 19.9189C44.5084 18.4013 42.9708 17.4699 41.4528 17.8426L40.1253 18.1686C40.1347 18.062 40.1324 17.9056 40.1325 17.7972C40.1325 16.2548 38.8479 15 37.269 15H36.6517C36.3442 15 36.0582 15.1582 35.8948 15.4188C35.5928 15.9003 34.4693 16.4122 32.982 16.4122C31.4948 16.4122 30.3713 15.9003 30.0693 15.4188C29.9059 15.1582 29.62 15 29.3124 15H28.695C27.116 15 25.8314 16.2549 25.8314 17.7972C25.8316 17.9062 25.8292 18.0614 25.8387 18.1686L24.5111 17.8426C22.9935 17.4701 21.4556 18.4013 21.0829 19.9189C20.9024 20.6541 21.0189 21.4155 21.411 22.063C21.8032 22.7105 22.4241 23.1665 23.1592 23.3472L25.8704 24.013C25.8322 24.2141 25.8288 24.4345 25.8314 24.6395C25.8314 26.0142 26.8522 27.1596 28.1921 27.3926V28.8257C26.8522 29.0587 25.8314 30.2042 25.8314 31.5789C25.8316 31.6879 25.8292 31.8431 25.8387 31.9503L24.5111 31.6243C22.9937 31.2518 21.4556 32.1831 21.0829 33.7007C20.7102 35.2183 21.6416 36.7561 23.1592 37.1289L25.8704 37.7948C25.8322 37.9958 25.8288 38.2162 25.8314 38.4211C25.8314 39.7958 26.8522 40.9413 28.1921 41.1743V42.6074C26.8522 42.8404 25.8314 43.9858 25.8314 45.3605C25.8316 45.4695 25.8292 45.6248 25.8387 45.732L24.5111 45.406C22.9935 45.0334 21.4556 45.9647 21.0829 47.4823C20.7102 49 21.6416 50.5378 23.1592 50.9105L25.8704 51.5763C25.8322 51.7775 25.8288 51.9979 25.8314 52.2028C25.8314 53.7452 27.116 55 28.695 55H37.2689C38.8479 55 40.1325 53.7451 40.1325 52.2028C40.1351 51.9977 40.1317 51.7777 40.0935 51.5763L42.8046 50.9105C44.3222 50.5378 45.2537 48.9999 44.881 47.4822C44.5083 45.9647 42.9707 45.0334 41.4528 45.406L40.1252 45.732C40.1347 45.6254 40.1323 45.4689 40.1325 45.3605C40.1325 43.9858 39.1117 42.8404 37.7718 42.6074V41.1743C39.1117 40.9413 40.1325 39.7958 40.1325 38.4211C40.1351 38.2159 40.1317 37.9961 40.0935 37.7947L42.8046 37.1288C44.3224 36.7561 45.2538 35.2182 44.8811 33.7006ZM35.9851 27.4367H29.9789L29.9788 29.0823C30.0116 29.1191 30.0426 29.1578 30.0692 29.2004C30.3712 29.6819 31.4947 30.1938 32.9819 30.1938C34.4692 30.1938 35.5927 29.6819 35.8947 29.2004C35.9213 29.1578 35.9523 29.1191 35.9851 29.0823V27.4367ZM42.1289 19.5475C42.0464 19.5475 41.9627 19.5573 41.8791 19.5779L39.3023 20.2107C39.1989 20.525 39.1426 20.8665 39.1426 21.2184C39.1426 21.6193 39.2138 22.0078 39.347 22.3565L42.3786 21.612C42.9394 21.4742 43.2837 20.906 43.1459 20.3451C43.0287 19.8679 42.5997 19.5475 42.1289 19.5475ZM23.8354 19.5475C23.3645 19.5475 22.9354 19.8679 22.8182 20.3451C22.6805 20.906 23.0247 21.4743 23.5854 21.612L26.617 22.3565C26.7502 22.0079 26.8214 21.6193 26.8214 21.2184C26.8214 20.8665 26.7652 20.525 26.6617 20.2107L24.0851 19.5779C24.0016 19.5573 23.9178 19.5475 23.8354 19.5475ZM27.7938 23.9335C27.6306 24.1573 27.6067 24.3911 27.6183 24.6395C27.6183 25.1967 28.1014 25.65 28.6951 25.6498H37.269C37.8627 25.6498 38.3458 25.1965 38.3458 24.6394C38.3575 24.3911 38.3336 24.1572 38.1703 23.9335C37.6451 23.1755 37.3559 22.2113 37.3559 21.2183C37.3559 20.2253 37.6451 19.261 38.1703 18.5031C38.3335 18.2793 38.3575 18.0456 38.3458 17.7972C38.3458 17.2401 37.8627 16.7868 37.269 16.7868H37.0801C36.2483 17.6573 34.7108 18.199 32.982 18.199C31.2531 18.199 29.7157 17.6573 28.884 16.7868H28.6951C28.1014 16.7868 27.6183 17.24 27.6183 17.7972C27.6067 18.0455 27.6306 18.2795 27.7938 18.5031C28.319 19.261 28.6083 20.2254 28.6083 21.2183C28.6083 22.2113 28.319 23.1755 27.7938 23.9335ZM23.8354 33.3292C23.3645 33.3292 22.9354 33.6496 22.8182 34.1268C22.6805 34.6876 23.0247 35.2559 23.5854 35.3937L26.617 36.1383C26.7502 35.7896 26.8214 35.401 26.8214 35.0001C26.8214 34.6482 26.7652 34.3067 26.6617 33.9924L24.0851 33.3595C24.0016 33.339 23.9178 33.3292 23.8354 33.3292ZM35.8948 42.982C35.9214 42.9395 35.9524 42.9008 35.9851 42.864L35.9851 41.2183H29.9789V42.864C30.0117 42.9008 30.0427 42.9395 30.0693 42.982C30.3713 43.4636 31.4948 43.9755 32.982 43.9755C34.4693 43.9755 35.5928 43.4636 35.8948 42.982ZM24.0851 47.141C23.5243 47.0035 22.956 47.3475 22.8182 47.9083C22.6805 48.4692 23.0247 49.0375 23.5855 49.1752L26.617 49.9198C26.7502 49.5711 26.8214 49.1824 26.8214 48.7816C26.8214 48.4297 26.7652 48.0882 26.6617 47.7739L24.0851 47.141ZM42.1289 47.1107C42.0464 47.1107 41.9627 47.1205 41.8791 47.141L39.3023 47.7738C39.1989 48.0881 39.1426 48.4296 39.1426 48.7815C39.1426 49.1824 39.2138 49.5709 39.347 49.9196L42.3786 49.1751C42.9394 49.0374 43.2837 48.4691 43.1459 47.9082C43.0287 47.4311 42.5997 47.1107 42.1289 47.1107ZM38.1702 46.0664C38.3335 45.8426 38.3574 45.6088 38.3458 45.3605C38.3458 44.8033 37.8627 44.35 37.269 44.3499H37.0801C36.2483 45.2205 34.7108 45.7622 32.982 45.7622C31.2531 45.7622 29.7157 45.2205 28.884 44.3499H28.6951C28.1014 44.3499 27.6183 44.8032 27.6183 45.3604C27.6067 45.6086 27.6306 45.8426 27.7938 46.0663C28.319 46.8243 28.6083 47.7886 28.6083 48.7815C28.6083 49.7744 28.319 50.7387 27.7938 51.4966C27.6306 51.7205 27.6067 51.9543 27.6183 52.2026C27.6183 52.7598 28.1014 53.2131 28.6951 53.2131H37.269C37.8627 53.2131 38.3458 52.7598 38.3458 52.2026C38.3574 51.9544 38.3335 51.7205 38.1702 51.4967C37.645 50.7388 37.3558 49.7745 37.3558 48.7816C37.3558 47.7886 37.645 46.8243 38.1702 46.0664ZM37.269 39.4315C37.8627 39.4315 38.3458 38.9782 38.3458 38.421C38.3575 38.1729 38.3335 37.9389 38.1703 37.7152C37.6451 36.9571 37.3559 35.9929 37.3559 34.9999C37.3559 34.007 37.6451 33.0427 38.1703 32.2848C38.3336 32.061 38.3575 31.8271 38.3458 31.5788C38.3458 31.0217 37.8627 30.5684 37.269 30.5684H37.0801C36.2483 31.4389 34.7108 31.9806 32.982 31.9806C31.2531 31.9806 29.7157 31.4389 28.884 30.5684H28.6951C28.1014 30.5684 27.6183 31.0216 27.6183 31.5788C27.6067 31.8271 27.6306 32.0611 27.7938 32.2848C28.319 33.0427 28.6083 34.007 28.6083 34.9999C28.6083 35.993 28.319 36.9572 27.7938 37.7151C27.6306 37.9389 27.6067 38.1727 27.6183 38.421C27.6183 38.9782 28.1014 39.4315 28.6951 39.4315H37.269ZM39.1426 34.9999C39.1426 35.4009 39.2138 35.7895 39.347 36.1381L42.3786 35.3935C42.9394 35.2557 43.2837 34.6875 43.1459 34.1266C43.0287 33.6494 42.5997 33.329 42.1289 33.329C42.0464 33.329 41.9627 33.3388 41.8791 33.3594L39.3024 33.9922C39.1989 34.3065 39.1426 34.648 39.1426 34.9999Z" fill="#BF7E68"/>
<path d="M22.8182 47.9083C22.956 47.3475 23.5243 47.0035 24.0851 47.141L26.6617 47.7739C26.7652 48.0882 26.8214 48.4297 26.8214 48.7816C26.8214 49.1824 26.7502 49.5711 26.617 49.9198L23.5855 49.1752C23.0247 49.0375 22.6805 48.4692 22.8182 47.9083Z" fill="#BF7E68"/>
<path d="M41.8791 47.141C41.9627 47.1205 42.0464 47.1107 42.1289 47.1107C42.5997 47.1107 43.0287 47.4311 43.1459 47.9082C43.2837 48.4691 42.9394 49.0374 42.3786 49.1751L39.347 49.9196C39.2138 49.5709 39.1426 49.1824 39.1426 48.7815C39.1426 48.4296 39.1989 48.0881 39.3023 47.7738L41.8791 47.141Z" fill="#BF7E68"/>
<path d="M35.9851 42.864C35.9524 42.9008 35.9214 42.9395 35.8948 42.982C35.5928 43.4636 34.4693 43.9755 32.982 43.9755C31.4948 43.9755 30.3713 43.4636 30.0693 42.982C30.0427 42.9395 30.0117 42.9008 29.9789 42.864V41.2183H35.9851L35.9851 42.864Z" fill="#BF7E68"/>
<path d="M22.8182 34.1268C22.9354 33.6496 23.3645 33.3292 23.8354 33.3292C23.9178 33.3292 24.0016 33.339 24.0851 33.3595L26.6617 33.9924C26.7652 34.3067 26.8214 34.6482 26.8214 35.0001C26.8214 35.401 26.7502 35.7896 26.617 36.1383L23.5854 35.3937C23.0247 35.2559 22.6805 34.6876 22.8182 34.1268Z" fill="#BF7E68"/>
<path d="M39.347 36.1381C39.2138 35.7895 39.1426 35.4009 39.1426 34.9999C39.1426 34.648 39.1989 34.3065 39.3024 33.9922L41.8791 33.3594C41.9627 33.3388 42.0464 33.329 42.1289 33.329C42.5997 33.329 43.0287 33.6494 43.1459 34.1266C43.2837 34.6875 42.9394 35.2557 42.3786 35.3935L39.347 36.1381Z" fill="#BF7E68"/>
<path d="M29.9789 27.4367H35.9851V29.0823C35.9523 29.1191 35.9213 29.1578 35.8947 29.2004C35.5927 29.6819 34.4692 30.1938 32.9819 30.1938C31.4947 30.1938 30.3712 29.6819 30.0692 29.2004C30.0426 29.1578 30.0116 29.1191 29.9788 29.0823L29.9789 27.4367Z" fill="#BF7E68"/>
<path d="M22.8182 20.3451C22.9354 19.8679 23.3645 19.5475 23.8354 19.5475C23.9178 19.5475 24.0016 19.5573 24.0851 19.5779L26.6617 20.2107C26.7652 20.525 26.8214 20.8665 26.8214 21.2184C26.8214 21.6193 26.7502 22.0079 26.617 22.3565L23.5854 21.612C23.0247 21.4743 22.6805 20.906 22.8182 20.3451Z" fill="#BF7E68"/>
<path d="M41.8791 19.5779C41.9627 19.5573 42.0464 19.5475 42.1289 19.5475C42.5997 19.5475 43.0287 19.8679 43.1459 20.3451C43.2837 20.906 42.9394 21.4742 42.3786 21.612L39.347 22.3565C39.2138 22.0078 39.1426 21.6193 39.1426 21.2184C39.1426 20.8665 39.1989 20.525 39.3023 20.2107L41.8791 19.5779Z" fill="#BF7E68"/>
<path d="M27.6183 24.6395C27.6067 24.3911 27.6306 24.1573 27.7938 23.9335C28.319 23.1755 28.6083 22.2113 28.6083 21.2183C28.6083 20.2254 28.319 19.261 27.7938 18.5031C27.6306 18.2795 27.6067 18.0455 27.6183 17.7972C27.6183 17.24 28.1014 16.7868 28.6951 16.7868H28.884C29.7157 17.6573 31.2531 18.199 32.982 18.199C34.7108 18.199 36.2483 17.6573 37.0801 16.7868H37.269C37.8627 16.7868 38.3458 17.2401 38.3458 17.7972C38.3575 18.0456 38.3335 18.2793 38.1703 18.5031C37.6451 19.261 37.3559 20.2253 37.3559 21.2183C37.3559 22.2113 37.6451 23.1755 38.1703 23.9335C38.3336 24.1572 38.3575 24.3911 38.3458 24.6394C38.3458 25.1965 37.8627 25.6498 37.269 25.6498H28.6951C28.1014 25.65 27.6183 25.1967 27.6183 24.6395Z" fill="#BF7E68"/>
<path fill-rule="evenodd" clip-rule="evenodd" d="M44.8811 33.7006C44.7006 32.9655 44.2445 32.3445 43.597 31.9524C42.9494 31.5603 42.1881 31.4437 41.4528 31.6243L40.1253 31.9503C40.1347 31.8437 40.1324 31.6873 40.1325 31.5789C40.1325 30.2042 39.1117 29.0588 37.7718 28.8257V27.3926C39.1117 27.1596 40.1325 26.0142 40.1325 24.6395V24.4507C40.1325 24.3038 40.1186 24.1576 40.0936 24.013L42.8047 23.3472C44.3223 22.9745 45.2538 21.4365 44.8811 19.9189C44.5084 18.4013 42.9708 17.4699 41.4528 17.8426L40.1253 18.1686C40.1347 18.062 40.1324 17.9056 40.1325 17.7972C40.1325 16.2548 38.8479 15 37.269 15H36.6517C36.3442 15 36.0582 15.1582 35.8948 15.4188C35.5928 15.9003 34.4693 16.4122 32.982 16.4122C31.4948 16.4122 30.3713 15.9003 30.0693 15.4188C29.9059 15.1582 29.62 15 29.3124 15H28.695C27.116 15 25.8314 16.2549 25.8314 17.7972C25.8316 17.9062 25.8292 18.0614 25.8387 18.1686L24.5111 17.8426C22.9935 17.4701 21.4556 18.4013 21.0829 19.9189C20.9024 20.6541 21.0189 21.4155 21.411 22.063C21.8032 22.7105 22.4241 23.1665 23.1592 23.3472L25.8704 24.013C25.8322 24.2141 25.8288 24.4345 25.8314 24.6395C25.8314 26.0142 26.8522 27.1596 28.1921 27.3926V28.8257C26.8522 29.0587 25.8314 30.2042 25.8314 31.5789C25.8316 31.6879 25.8292 31.8431 25.8387 31.9503L24.5111 31.6243C22.9937 31.2518 21.4556 32.1831 21.0829 33.7007C20.7102 35.2183 21.6416 36.7561 23.1592 37.1289L25.8704 37.7948C25.8322 37.9958 25.8288 38.2162 25.8314 38.4211C25.8314 39.7958 26.8522 40.9413 28.1921 41.1743V42.6074C26.8522 42.8404 25.8314 43.9858 25.8314 45.3605C25.8316 45.4695 25.8292 45.6248 25.8387 45.732L24.5111 45.406C22.9935 45.0334 21.4556 45.9647 21.0829 47.4823C20.7102 49 21.6416 50.5378 23.1592 50.9105L25.8704 51.5763C25.8322 51.7775 25.8288 51.9979 25.8314 52.2028C25.8314 53.7452 27.116 55 28.695 55H37.2689C38.8479 55 40.1325 53.7451 40.1325 52.2028C40.1351 51.9977 40.1317 51.7777 40.0935 51.5763L42.8046 50.9105C44.3222 50.5378 45.2537 48.9999 44.881 47.4822C44.5083 45.9647 42.9707 45.0334 41.4528 45.406L40.1252 45.732C40.1347 45.6254 40.1323 45.4689 40.1325 45.3605C40.1325 43.9858 39.1117 42.8404 37.7718 42.6074V41.1743C39.1117 40.9413 40.1325 39.7958 40.1325 38.4211C40.1351 38.2159 40.1317 37.9961 40.0935 37.7947L42.8046 37.1288C44.3224 36.7561 45.2538 35.2182 44.8811 33.7006ZM35.9851 27.4367H29.9789L29.9788 29.0823C30.0116 29.1191 30.0426 29.1578 30.0692 29.2004C30.3712 29.6819 31.4947 30.1938 32.9819 30.1938C34.4692 30.1938 35.5927 29.6819 35.8947 29.2004C35.9213 29.1578 35.9523 29.1191 35.9851 29.0823V27.4367ZM42.1289 19.5475C42.0464 19.5475 41.9627 19.5573 41.8791 19.5779L39.3023 20.2107C39.1989 20.525 39.1426 20.8665 39.1426 21.2184C39.1426 21.6193 39.2138 22.0078 39.347 22.3565L42.3786 21.612C42.9394 21.4742 43.2837 20.906 43.1459 20.3451C43.0287 19.8679 42.5997 19.5475 42.1289 19.5475ZM23.8354 19.5475C23.3645 19.5475 22.9354 19.8679 22.8182 20.3451C22.6805 20.906 23.0247 21.4743 23.5854 21.612L26.617 22.3565C26.7502 22.0079 26.8214 21.6193 26.8214 21.2184C26.8214 20.8665 26.7652 20.525 26.6617 20.2107L24.0851 19.5779C24.0016 19.5573 23.9178 19.5475 23.8354 19.5475ZM27.7938 23.9335C27.6306 24.1573 27.6067 24.3911 27.6183 24.6395C27.6183 25.1967 28.1014 25.65 28.6951 25.6498H37.269C37.8627 25.6498 38.3458 25.1965 38.3458 24.6394C38.3575 24.3911 38.3336 24.1572 38.1703 23.9335C37.6451 23.1755 37.3559 22.2113 37.3559 21.2183C37.3559 20.2253 37.6451 19.261 38.1703 18.5031C38.3335 18.2793 38.3575 18.0456 38.3458 17.7972C38.3458 17.2401 37.8627 16.7868 37.269 16.7868H37.0801C36.2483 17.6573 34.7108 18.199 32.982 18.199C31.2531 18.199 29.7157 17.6573 28.884 16.7868H28.6951C28.1014 16.7868 27.6183 17.24 27.6183 17.7972C27.6067 18.0455 27.6306 18.2795 27.7938 18.5031C28.319 19.261 28.6083 20.2254 28.6083 21.2183C28.6083 22.2113 28.319 23.1755 27.7938 23.9335ZM23.8354 33.3292C23.3645 33.3292 22.9354 33.6496 22.8182 34.1268C22.6805 34.6876 23.0247 35.2559 23.5854 35.3937L26.617 36.1383C26.7502 35.7896 26.8214 35.401 26.8214 35.0001C26.8214 34.6482 26.7652 34.3067 26.6617 33.9924L24.0851 33.3595C24.0016 33.339 23.9178 33.3292 23.8354 33.3292ZM35.8948 42.982C35.9214 42.9395 35.9524 42.9008 35.9851 42.864L35.9851 41.2183H29.9789V42.864C30.0117 42.9008 30.0427 42.9395 30.0693 42.982C30.3713 43.4636 31.4948 43.9755 32.982 43.9755C34.4693 43.9755 35.5928 43.4636 35.8948 42.982ZM24.0851 47.141C23.5243 47.0035 22.956 47.3475 22.8182 47.9083C22.6805 48.4692 23.0247 49.0375 23.5855 49.1752L26.617 49.9198C26.7502 49.5711 26.8214 49.1824 26.8214 48.7816C26.8214 48.4297 26.7652 48.0882 26.6617 47.7739L24.0851 47.141ZM42.1289 47.1107C42.0464 47.1107 41.9627 47.1205 41.8791 47.141L39.3023 47.7738C39.1989 48.0881 39.1426 48.4296 39.1426 48.7815C39.1426 49.1824 39.2138 49.5709 39.347 49.9196L42.3786 49.1751C42.9394 49.0374 43.2837 48.4691 43.1459 47.9082C43.0287 47.4311 42.5997 47.1107 42.1289 47.1107ZM38.1702 46.0664C38.3335 45.8426 38.3574 45.6088 38.3458 45.3605C38.3458 44.8033 37.8627 44.35 37.269 44.3499H37.0801C36.2483 45.2205 34.7108 45.7622 32.982 45.7622C31.2531 45.7622 29.7157 45.2205 28.884 44.3499H28.6951C28.1014 44.3499 27.6183 44.8032 27.6183 45.3604C27.6067 45.6086 27.6306 45.8426 27.7938 46.0663C28.319 46.8243 28.6083 47.7886 28.6083 48.7815C28.6083 49.7744 28.319 50.7387 27.7938 51.4966C27.6306 51.7205 27.6067 51.9543 27.6183 52.2026C27.6183 52.7598 28.1014 53.2131 28.6951 53.2131H37.269C37.8627 53.2131 38.3458 52.7598 38.3458 52.2026C38.3574 51.9544 38.3335 51.7205 38.1702 51.4967C37.645 50.7388 37.3558 49.7745 37.3558 48.7816C37.3558 47.7886 37.645 46.8243 38.1702 46.0664ZM37.269 39.4315C37.8627 39.4315 38.3458 38.9782 38.3458 38.421C38.3575 38.1729 38.3335 37.9389 38.1703 37.7152C37.6451 36.9571 37.3559 35.9929 37.3559 34.9999C37.3559 34.007 37.6451 33.0427 38.1703 32.2848C38.3336 32.061 38.3575 31.8271 38.3458 31.5788C38.3458 31.0217 37.8627 30.5684 37.269 30.5684H37.0801C36.2483 31.4389 34.7108 31.9806 32.982 31.9806C31.2531 31.9806 29.7157 31.4389 28.884 30.5684H28.6951C28.1014 30.5684 27.6183 31.0216 27.6183 31.5788C27.6067 31.8271 27.6306 32.0611 27.7938 32.2848C28.319 33.0427 28.6083 34.007 28.6083 34.9999C28.6083 35.993 28.319 36.9572 27.7938 37.7151C27.6306 37.9389 27.6067 38.1727 27.6183 38.421C27.6183 38.9782 28.1014 39.4315 28.6951 39.4315H37.269ZM39.1426 34.9999C39.1426 35.4009 39.2138 35.7895 39.347 36.1381L42.3786 35.3935C42.9394 35.2557 43.2837 34.6875 43.1459 34.1266C43.0287 33.6494 42.5997 33.329 42.1289 33.329C42.0464 33.329 41.9627 33.3388 41.8791 33.3594L39.3024 33.9922C39.1989 34.3065 39.1426 34.648 39.1426 34.9999Z" fill="#FFDED5"/>
<path d="M38.3458 45.3605C38.3574 45.6088 38.3335 45.8426 38.1702 46.0664C37.645 46.8243 37.3558 47.7886 37.3558 48.7816C37.3558 49.7745 37.645 50.7388 38.1702 51.4967C38.3335 51.7205 38.3574 51.9544 38.3458 52.2026C38.3458 52.7598 37.8627 53.2131 37.269 53.2131H28.6951C28.1014 53.2131 27.6183 52.7598 27.6183 52.2026C27.6067 51.9543 27.6306 51.7205 27.7938 51.4966C28.319 50.7387 28.6083 49.7744 28.6083 48.7815C28.6083 47.7886 28.319 46.8243 27.7938 46.0663C27.6306 45.8426 27.6067 45.6086 27.6183 45.3604C27.6183 44.8032 28.1014 44.3499 28.6951 44.3499H28.884C29.7157 45.2205 31.2531 45.7622 32.982 45.7622C34.7108 45.7622 36.2483 45.2205 37.0801 44.3499H37.269C37.8627 44.35 38.3458 44.8033 38.3458 45.3605Z" fill="#FFDED5"/>
<path d="M38.3458 38.421C38.3458 38.9782 37.8627 39.4315 37.269 39.4315H28.6951C28.1014 39.4315 27.6183 38.9782 27.6183 38.421C27.6067 38.1727 27.6306 37.9389 27.7938 37.7151C28.319 36.9572 28.6083 35.993 28.6083 34.9999C28.6083 34.007 28.319 33.0427 27.7938 32.2848C27.6306 32.0611 27.6067 31.8271 27.6183 31.5788C27.6183 31.0216 28.1014 30.5684 28.6951 30.5684H28.884C29.7157 31.4389 31.2531 31.9806 32.982 31.9806C34.7108 31.9806 36.2483 31.4389 37.0801 30.5684H37.269C37.8627 30.5684 38.3458 31.0217 38.3458 31.5788C38.3575 31.8271 38.3336 32.061 38.1703 32.2848C37.6451 33.0427 37.3559 34.007 37.3559 34.9999C37.3559 35.9929 37.6451 36.9571 38.1703 37.7152C38.3335 37.9389 38.3575 38.1729 38.3458 38.421Z" fill="#FFDED5"/>
<path d="M27.6183 24.6395C27.6067 24.3911 27.6306 24.1573 27.7938 23.9335C28.319 23.1755 28.6083 22.2113 28.6083 21.2183C28.6083 20.2254 28.319 19.261 27.7938 18.5031C27.6306 18.2795 27.6067 18.0455 27.6183 17.7972C27.6183 17.24 28.1014 16.7868 28.6951 16.7868H28.884C29.7157 17.6573 31.2531 18.199 32.982 18.199C34.7108 18.199 36.2483 17.6573 37.0801 16.7868H37.269C37.8627 16.7868 38.3458 17.2401 38.3458 17.7972C38.3575 18.0456 38.3335 18.2793 38.1703 18.5031C37.6451 19.261 37.3559 20.2253 37.3559 21.2183C37.3559 22.2113 37.6451 23.1755 38.1703 23.9335C38.3336 24.1572 38.3575 24.3911 38.3458 24.6394C38.3458 25.1965 37.8627 25.6498 37.269 25.6498H28.6951C28.1014 25.65 27.6183 25.1967 27.6183 24.6395Z" fill="#FFDED5"/>
<path d="M44.8811 33.7006C44.7006 32.9655 44.2445 32.3445 43.597 31.9524C42.9494 31.5603 42.1881 31.4437 41.4528 31.6243L40.1253 31.9503C40.1347 31.8437 40.1324 31.6873 40.1325 31.5789C40.1325 30.2042 39.1117 29.0588 37.7718 28.8257V27.3926C39.1117 27.1596 40.1325 26.0142 40.1325 24.6395V24.4507C40.1325 24.3038 40.1186 24.1576 40.0936 24.013L42.8047 23.3472C44.3223 22.9745 45.2538 21.4365 44.8811 19.9189C44.5084 18.4013 42.9708 17.4699 41.4528 17.8426L40.1253 18.1686C40.1347 18.062 40.1324 17.9056 40.1325 17.7972C40.1325 16.2548 38.8479 15 37.269 15H36.6517C36.3442 15 36.0582 15.1582 35.8948 15.4188C35.5928 15.9003 34.4693 16.4122 32.982 16.4122C31.4948 16.4122 30.3713 15.9003 30.0693 15.4188C29.9059 15.1582 29.62 15 29.3124 15H28.695C27.116 15 25.8314 16.2549 25.8314 17.7972C25.8316 17.9062 25.8292 18.0614 25.8387 18.1686L24.5111 17.8426C22.9935 17.4701 21.4556 18.4013 21.0829 19.9189C20.9024 20.6541 21.0189 21.4155 21.411 22.063C21.8032 22.7105 22.4241 23.1665 23.1592 23.3472L25.8704 24.013C25.8322 24.2141 25.8288 24.4345 25.8314 24.6395C25.8314 26.0142 26.8522 27.1596 28.1921 27.3926V28.8257C26.8522 29.0587 25.8314 30.2042 25.8314 31.5789C25.8316 31.6879 25.8292 31.8431 25.8387 31.9503L24.5111 31.6243C22.9937 31.2518 21.4556 32.1831 21.0829 33.7007C20.7102 35.2183 21.6416 36.7561 23.1592 37.1289L25.8704 37.7947C25.8322 37.9958 25.8288 38.2162 25.8314 38.4211C25.8314 39.7958 26.8522 40.9413 28.1921 41.1743V42.6074C26.8522 42.8404 25.8314 43.9858 25.8314 45.3605C25.8316 45.4695 25.8292 45.6248 25.8387 45.732L24.5111 45.406C22.9935 45.0334 21.4556 45.9647 21.0829 47.4823C20.7102 49 21.6416 50.5378 23.1592 50.9105L25.8704 51.5763C25.8322 51.7775 25.8288 51.9979 25.8314 52.2028C25.8314 53.7452 27.116 55 28.695 55H37.2689C38.8479 55 40.1324 53.7451 40.1324 52.2028C40.1351 51.9977 40.1317 51.7777 40.0935 51.5763L42.8046 50.9105C44.3222 50.5378 45.2537 48.9999 44.881 47.4822C44.5083 45.9647 42.9707 45.0334 41.4528 45.406L40.1252 45.732C40.1347 45.6254 40.1323 45.4689 40.1324 45.3605C40.1324 43.9858 39.1117 42.8404 37.7718 42.6074V41.1743C39.1117 40.9413 40.1324 39.7958 40.1324 38.4211C40.1351 38.2159 40.1317 37.9961 40.0935 37.7947L42.8046 37.1288C44.3224 36.7561 45.2538 35.2182 44.8811 33.7006ZM29.9789 27.4367H35.9851V29.0823C35.9523 29.1191 35.9213 29.1578 35.8947 29.2004C35.5927 29.6819 34.4692 30.1938 32.9819 30.1938C31.4947 30.1938 30.3712 29.6819 30.0692 29.2004C30.0426 29.1578 30.0116 29.1191 29.9788 29.0823V27.4367H29.9789ZM41.8791 19.5779C41.9627 19.5573 42.0464 19.5475 42.1289 19.5475C42.5997 19.5475 43.0287 19.8679 43.1459 20.3451C43.2837 20.906 42.9394 21.4742 42.3786 21.612L39.347 22.3565C39.2138 22.0078 39.1426 21.6193 39.1426 21.2184C39.1426 20.8665 39.1989 20.525 39.3023 20.2107L41.8791 19.5779ZM22.8182 20.3451C22.9354 19.8679 23.3645 19.5475 23.8354 19.5475C23.9178 19.5475 24.0016 19.5573 24.0851 19.5779L26.6617 20.2107C26.7652 20.525 26.8214 20.8665 26.8214 21.2184C26.8214 21.6193 26.7502 22.0079 26.617 22.3565L23.5854 21.612C23.0247 21.4743 22.6805 20.906 22.8182 20.3451ZM27.6183 24.6395C27.6067 24.3911 27.6306 24.1573 27.7938 23.9335C28.319 23.1755 28.6083 22.2113 28.6083 21.2183C28.6083 20.2254 28.319 19.261 27.7938 18.5031C27.6306 18.2795 27.6067 18.0455 27.6183 17.7972C27.6183 17.24 28.1014 16.7868 28.6951 16.7868H28.884C29.7157 17.6573 31.2531 18.199 32.982 18.199C34.7108 18.199 36.2483 17.6573 37.0801 16.7868H37.269C37.8627 16.7868 38.3458 17.2401 38.3458 17.7972C38.3575 18.0456 38.3335 18.2793 38.1703 18.5031C37.6451 19.261 37.3559 20.2253 37.3559 21.2183C37.3559 22.2113 37.6451 23.1755 38.1703 23.9335C38.3336 24.1572 38.3575 24.3911 38.3458 24.6394C38.3458 25.1965 37.8627 25.6498 37.269 25.6498H28.6951C28.1014 25.65 27.6183 25.1967 27.6183 24.6395ZM22.8182 34.1268C22.9354 33.6496 23.3645 33.3292 23.8354 33.3292C23.9178 33.3292 24.0016 33.339 24.0851 33.3595L26.6617 33.9924C26.7652 34.3067 26.8214 34.6482 26.8214 35.0001C26.8214 35.401 26.7502 35.7896 26.617 36.1383L23.5854 35.3937C23.0247 35.2559 22.6805 34.6876 22.8182 34.1268ZM35.9851 42.864C35.9524 42.9008 35.9214 42.9395 35.8948 42.982C35.5928 43.4636 34.4693 43.9755 32.982 43.9755C31.4948 43.9755 30.3713 43.4636 30.0693 42.982C30.0427 42.9395 30.0117 42.9008 29.9789 42.864V41.2183H35.9851V42.864H35.9851ZM22.8182 47.9083C22.956 47.3475 23.5243 47.0035 24.0851 47.141L26.6617 47.7739C26.7652 48.0882 26.8214 48.4297 26.8214 48.7816C26.8214 49.1824 26.7502 49.5711 26.617 49.9198L23.5855 49.1752C23.0247 49.0375 22.6805 48.4692 22.8182 47.9083ZM41.8791 47.141C41.9627 47.1205 42.0464 47.1107 42.1289 47.1107C42.5997 47.1107 43.0287 47.4311 43.1459 47.9082C43.2837 48.4691 42.9394 49.0374 42.3786 49.1751L39.347 49.9196C39.2138 49.5709 39.1426 49.1824 39.1426 48.7815C39.1426 48.4296 39.1989 48.0881 39.3023 47.7738L41.8791 47.141ZM38.3458 45.3605C38.3574 45.6088 38.3334 45.8425 38.1702 46.0664C37.645 46.8243 37.3558 47.7886 37.3558 48.7816C37.3558 49.7745 37.645 50.7388 38.1702 51.4967C38.3335 51.7205 38.3574 51.9544 38.3458 52.2026C38.3458 52.7598 37.8627 53.2131 37.269 53.2131H28.6951C28.1014 53.2131 27.6183 52.7598 27.6183 52.2026C27.6067 51.9543 27.6306 51.7205 27.7938 51.4966C28.319 50.7387 28.6083 49.7744 28.6083 48.7815C28.6083 47.7886 28.319 46.8243 27.7938 46.0663C27.6306 45.8426 27.6067 45.6086 27.6183 45.3604C27.6183 44.8032 28.1014 44.3499 28.6951 44.3499H28.884C29.7157 45.2205 31.2531 45.7622 32.982 45.7622C34.7108 45.7622 36.2483 45.2205 37.0801 44.3499H37.269C37.8627 44.35 38.3458 44.8033 38.3458 45.3605ZM38.3458 38.421C38.3458 38.9782 37.8627 39.4315 37.269 39.4315H28.6951C28.1014 39.4315 27.6183 38.9782 27.6183 38.421C27.6067 38.1727 27.6306 37.9389 27.7938 37.7151C28.319 36.9572 28.6083 35.9929 28.6083 34.9999C28.6083 34.007 28.319 33.0427 27.7938 32.2848C27.6306 32.0611 27.6067 31.8271 27.6183 31.5788C27.6183 31.0216 28.1014 30.5684 28.6951 30.5684H28.884C29.7157 31.4389 31.2531 31.9806 32.982 31.9806C34.7108 31.9806 36.2483 31.4389 37.0801 30.5684H37.269C37.8627 30.5684 38.3458 31.0217 38.3458 31.5788C38.3575 31.8271 38.3336 32.061 38.1703 32.2848C37.6451 33.0427 37.3559 34.007 37.3559 34.9999C37.3559 35.9929 37.6451 36.9571 38.1703 37.7152C38.3335 37.9389 38.3575 38.1729 38.3458 38.421ZM39.347 36.1381C39.2138 35.7895 39.1426 35.4009 39.1426 34.9999C39.1426 34.648 39.1989 34.3065 39.3024 33.9922L41.8791 33.3594C41.9627 33.3388 42.0464 33.329 42.1289 33.329C42.5997 33.329 43.0287 33.6494 43.1459 34.1266C43.2837 34.6875 42.9394 35.2557 42.3786 35.3935L39.347 36.1381Z" fill="#4C241D"/>
<path d="M33.1579 49.7473C32.8618 49.7473 32.6218 49.9873 32.6218 50.2834V51.3612C32.6218 51.6572 32.8618 51.8973 33.1579 51.8973C33.4539 51.8973 33.6938 51.6572 33.6938 51.3612V50.2834C33.6938 49.9873 33.4539 49.7473 33.1579 49.7473Z" fill="#4C241D"/>
<path d="M35.2877 47.7061C34.9916 47.7061 34.7517 47.9461 34.7517 48.242V49.3199C34.7517 49.6159 34.9917 49.8558 35.2877 49.8558C35.5837 49.8558 35.8237 49.6158 35.8237 49.3199V48.242C35.8237 47.9461 35.5837 47.7061 35.2877 47.7061Z" fill="#4C241D"/>
<path d="M35.2196 35.3049C34.9236 35.3049 34.6836 35.545 34.6836 35.8409V36.9187C34.6836 37.2148 34.9236 37.4548 35.2196 37.4548C35.5157 37.4548 35.7557 37.2148 35.7557 36.9187V35.8409C35.7556 35.545 35.5157 35.3049 35.2196 35.3049Z" fill="#4C241D"/>
<path d="M30.399 22.74C30.3567 22.74 30.314 22.737 30.271 22.7308C29.7826 22.6608 29.4435 22.208 29.5136 21.7196C29.5223 21.6705 29.5277 21.6256 29.5305 21.5759C29.5753 21.0845 30.0102 20.7223 30.5013 20.7675C30.9927 20.8123 31.3547 21.247 31.3098 21.7384C31.3048 21.8225 31.2968 21.8906 31.2822 21.9735C31.2184 22.4186 30.8362 22.7399 30.399 22.74Z" fill="#4C241D"/>
<path d="M30.5001 20.4034C30.0435 20.4035 29.661 20.0581 29.6125 19.6063C29.6071 19.5773 29.6029 19.5474 29.5996 19.5166C29.5484 19.0258 29.9046 18.5865 30.3953 18.5352C30.871 18.4855 31.2973 18.8177 31.3706 19.2841C31.3826 19.3424 31.3904 19.4051 31.3933 19.4723C31.4142 19.9652 31.0315 20.3818 30.5385 20.4027C30.5256 20.4032 30.5128 20.4034 30.5001 20.4034Z" fill="#4C241D"/>
</svg>
