<svg width="60" height="60" viewBox="0 0 60 60" fill="none" xmlns="http://www.w3.org/2000/svg">
<path d="M22.6769 44.0323C31.2925 44.0323 38.2769 37.0479 38.2769 28.4323C38.2769 19.8166 31.2925 12.8323 22.6769 12.8323C14.0613 12.8323 7.0769 19.8166 7.0769 28.4323C7.0769 37.0479 14.0613 44.0323 22.6769 44.0323Z" fill="#EAEAEA"/>
<path d="M11.8769 10.4322C11.4351 10.4322 11.0769 10.074 11.0769 9.63217V8.03218C11.0769 7.59038 11.4351 7.23218 11.8769 7.23218C12.3187 7.23218 12.6769 7.59038 12.6769 8.03218V9.63217C12.6769 10.074 12.3187 10.4322 11.8769 10.4322Z" fill="#4C241D"/>
<path d="M11.8769 15.2322C11.4351 15.2322 11.0769 14.874 11.0769 14.4322V12.8322C11.0769 12.3904 11.4351 12.0322 11.8769 12.0322C12.3187 12.0322 12.6769 12.3904 12.6769 12.8322V14.4322C12.6769 14.874 12.3187 15.2322 11.8769 15.2322Z" fill="#4C241D"/>
<path d="M10.2769 12.0321H8.67695C8.23515 12.0321 7.87695 11.6739 7.87695 11.2321C7.87695 10.7903 8.23515 10.4321 8.67695 10.4321H10.2769C10.7187 10.4321 11.0769 10.7903 11.0769 11.2321C11.0769 11.6739 10.7187 12.0321 10.2769 12.0321Z" fill="#4C241D"/>
<path d="M15.077 12.0321H13.477C13.0352 12.0321 12.677 11.6739 12.677 11.2321C12.677 10.7903 13.0352 10.4321 13.477 10.4321H15.077C15.5188 10.4321 15.877 10.7903 15.877 11.2321C15.877 11.6739 15.5188 12.0321 15.077 12.0321Z" fill="#4C241D"/>
<path d="M21.4973 10.7407C21.9696 10.7407 22.3525 10.3578 22.3525 9.88547C22.3525 9.41316 21.9696 9.03027 21.4973 9.03027C21.025 9.03027 20.6421 9.41316 20.6421 9.88547C20.6421 10.3578 21.025 10.7407 21.4973 10.7407Z" fill="#4C241D"/>
<path d="M52.6562 52.6562H20.8594C18.9209 52.6562 17.3438 51.0791 17.3438 49.1406V40.9375H49.1406C51.0791 40.9375 52.6562 42.5146 52.6562 44.4531V52.6562Z" fill="#FFDED5"/>
<path d="M27.2564 34.4572L31.393 38.5938H23.1198L27.2564 34.4572Z" fill="#EB5757"/>
<path d="M34.7075 38.5938L28.9137 32.7999L35.5428 26.1708L43.8292 34.4572L39.6927 38.5938H34.7075Z" fill="#219653"/>
<path d="M41.3984 20.3151C42.7692 18.9443 44.9996 18.9443 46.3704 20.3151L52.1709 26.1156L45.4865 32.8L37.2 24.5135L41.3984 20.3151Z" fill="#6FCF97"/>
<path d="M20.8594 17.3438H29.0625V26.875H17.3438V20.8594C17.3438 18.9209 18.9209 17.3438 20.8594 17.3438Z" fill="#BB6BD9"/>
<path d="M17.3438 29.2188H29.0625V29.3366L19.8053 38.5938H17.3438V29.2188Z" fill="#56CCF2"/>
<path d="M49.1406 38.5938H43.0072L54.6567 26.9442C55.1144 26.4866 55.1144 25.7446 54.6567 25.287L48.0276 18.6577C45.743 16.3733 42.0257 16.3732 39.7412 18.6577C39.0308 19.3681 33.2312 25.1677 31.4062 26.9927V16.1719C31.4062 15.5247 30.8815 15 30.2343 15H20.8594C17.6285 15 15 17.6285 15 20.8594V49.1406C15 52.3715 17.6285 55 20.8594 55H53.8281C54.4753 55 55 54.4753 55 53.8281V44.4531C55 41.2223 52.3715 38.5938 49.1406 38.5938ZM34.7075 38.5938L28.9137 32.7999L35.5428 26.1708L43.8292 34.4572L39.6927 38.5938H34.7075ZM17.3438 29.2188H29.0625V29.3366L19.8053 38.5938H17.3438V29.2188ZM27.2564 34.4572L31.393 38.5938H23.1198L27.2564 34.4572ZM41.3984 20.3151C42.7692 18.9443 44.9996 18.9443 46.3704 20.3151L52.1709 26.1156L45.4865 32.8L37.2 24.5135L41.3984 20.3151ZM20.8594 17.3438H29.0625V26.875H17.3438V20.8594C17.3438 18.9209 18.9209 17.3438 20.8594 17.3438ZM52.6562 52.6562H20.8594C18.9209 52.6562 17.3438 51.0791 17.3438 49.1406V40.9375H49.1406C51.0791 40.9375 52.6562 42.5146 52.6562 44.4531V52.6562Z" fill="#4C241D"/>
<path d="M22.6367 44C21.1828 44 20 45.1828 20 46.6367C20 48.0906 21.1828 49.2734 22.6367 49.2734C24.0906 49.2734 25.2734 48.0906 25.2734 46.6367C25.2734 45.1828 24.0906 44 22.6367 44ZM22.6367 47.5156C22.1521 47.5156 21.7578 47.1213 21.7578 46.6367C21.7578 46.1521 22.1521 45.7578 22.6367 45.7578C23.1213 45.7578 23.5156 46.1521 23.5156 46.6367C23.5156 47.1213 23.1213 47.5156 22.6367 47.5156Z" fill="#4C241D"/>
</svg>
