<svg width="60" height="60" viewBox="0 0 60 60" fill="none" xmlns="http://www.w3.org/2000/svg">
<path d="M23.1999 49.5999C31.8155 49.5999 38.7999 42.6155 38.7999 33.9999C38.7999 25.3843 31.8155 18.3999 23.1999 18.3999C14.5842 18.3999 7.59985 25.3843 7.59985 33.9999C7.59985 42.6155 14.5842 49.5999 23.1999 49.5999Z" fill="#EAEAEA"/>
<path d="M23.9386 34.9063C16.3742 34.9063 9.99097 25.0571 9.99097 18.8715C9.99097 15.3941 11.5688 11.0313 19.0844 9.99367C19.5184 9.93227 19.9258 10.2387 19.9864 10.6769C20.0466 11.1145 19.741 11.5183 19.3032 11.5789C14.1138 12.2953 11.591 14.6805 11.591 18.8715C11.591 24.3097 17.362 33.3063 23.9386 33.3063C30.3018 33.3063 35.091 24.5497 35.091 18.8715C35.091 14.2161 31.0012 12.4485 27.57 11.7851C27.1364 11.7011 26.8528 11.2815 26.9364 10.8475C27.0196 10.4135 27.4368 10.1307 27.874 10.2139C33.56 11.3131 36.6912 14.3877 36.6912 18.8713C36.691 25.3287 31.3362 34.9063 23.9386 34.9063Z" fill="#4C241D"/>
<path d="M18.9356 13.5266C20.2208 13.5266 21.2626 12.4847 21.2626 11.1996C21.2626 9.91439 20.2208 8.87256 18.9356 8.87256C17.6505 8.87256 16.6086 9.91439 16.6086 11.1996C16.6086 12.4847 17.6505 13.5266 18.9356 13.5266Z" fill="#C1DBDC"/>
<path d="M18.9353 14.3268C17.2111 14.3268 15.8083 12.924 15.8083 11.1998C15.8083 9.47555 17.2111 8.07275 18.9353 8.07275C20.6595 8.07275 22.0623 9.47555 22.0623 11.1998C22.0623 12.924 20.6595 14.3268 18.9353 14.3268ZM18.9353 9.67275C18.0935 9.67275 17.4083 10.358 17.4083 11.1998C17.4083 12.0416 18.0935 12.7268 18.9353 12.7268C19.7771 12.7268 20.4623 12.0416 20.4623 11.1998C20.4623 10.358 19.7771 9.67275 18.9353 9.67275Z" fill="#4C241D"/>
<path d="M27.88 13.5266C29.1651 13.5266 30.207 12.4847 30.207 11.1996C30.207 9.91439 29.1651 8.87256 27.88 8.87256C26.5948 8.87256 25.553 9.91439 25.553 11.1996C25.553 12.4847 26.5948 13.5266 27.88 13.5266Z" fill="#C1DBDC"/>
<path d="M27.8799 14.3268C26.1557 14.3268 24.7529 12.924 24.7529 11.1998C24.7529 9.47555 26.1557 8.07275 27.8799 8.07275C29.6041 8.07275 31.0069 9.47555 31.0069 11.1998C31.0069 12.924 29.6041 14.3268 27.8799 14.3268ZM27.8799 9.67275C27.0381 9.67275 26.3529 10.358 26.3529 11.1998C26.3529 12.0416 27.0381 12.7268 27.8799 12.7268C28.7217 12.7268 29.4069 12.0416 29.4069 11.1998C29.4069 10.358 28.7217 9.67275 27.8799 9.67275Z" fill="#4C241D"/>
<path d="M30.7947 51.9999C26.3807 51.9999 22.7893 48.4089 22.7893 43.9949V34.1063C22.7893 33.6645 23.1475 33.3063 23.5893 33.3063C24.0311 33.3063 24.3893 33.6645 24.3893 34.1063V43.9949C24.3893 47.5265 27.2627 50.3999 30.7947 50.3999C34.3263 50.3999 37.1997 47.5265 37.1997 43.9949V30.8297C37.1997 27.9461 39.5457 25.6001 42.4293 25.6001C45.3129 25.6001 47.6589 27.9461 47.6589 30.8297V36.4337C47.6589 36.8755 47.3007 37.2337 46.8589 37.2337C46.4171 37.2337 46.0589 36.8755 46.0589 36.4337V30.8297C46.0589 28.8281 44.4307 27.2001 42.4293 27.2001C40.4279 27.2001 38.7997 28.8283 38.7997 30.8297V43.9949C38.7999 48.4089 35.2087 51.9999 30.7947 51.9999Z" fill="#4C241D"/>
<path d="M25.2249 24.1246C25.2249 23.1464 24.4925 22.2696 23.5155 22.2184C22.4737 22.1638 21.6119 22.9924 21.6119 24.0222V24.1244C21.6119 24.7688 21.2739 25.3496 20.7481 25.7222C20.1957 26.1138 19.8641 26.7932 19.9775 27.5464C20.0923 28.3086 20.6941 28.9486 21.4495 29.1016C21.7899 29.1706 22.1181 29.1478 22.4147 29.0538C23.0757 28.844 23.7611 28.844 24.4221 29.0538C24.7185 29.148 25.0469 29.1706 25.3873 29.1016C26.1427 28.9484 26.7443 28.3084 26.8591 27.5464C26.9725 26.7934 26.6409 26.114 26.0885 25.7222C25.5629 25.3496 25.2249 24.769 25.2249 24.1246Z" fill="#FFDED5"/>
<path d="M21.8423 29.9414C21.6583 29.9414 21.4735 29.923 21.2911 29.8864C20.2157 29.6684 19.3505 28.7552 19.1865 27.6656C19.0341 26.6532 19.4553 25.6582 20.2857 25.0698C20.6201 24.8326 20.8119 24.4882 20.8119 24.1244V24.0224C20.8119 23.3106 21.1079 22.6212 21.6243 22.1314C22.1481 21.6342 22.8375 21.3798 23.5571 21.4196C24.9407 21.4918 26.0247 22.6802 26.0247 24.1242C26.0247 24.4878 26.2165 24.8324 26.5509 25.0696C27.3813 25.6578 27.8025 26.6528 27.6501 27.6654C27.4861 28.7548 26.6209 29.6682 25.5461 29.8858C25.0871 29.9784 24.6141 29.9546 24.1797 29.8162C23.6739 29.656 23.1617 29.656 22.6567 29.8162C22.3951 29.8996 22.1197 29.9414 21.8423 29.9414ZM23.4185 23.016C23.1587 23.016 22.9145 23.1128 22.7259 23.2922C22.5231 23.4844 22.4119 23.7438 22.4119 24.0226V24.1246C22.4119 25.0008 21.9631 25.8422 21.2107 26.3754C20.8709 26.616 20.7057 27.0094 20.7685 27.4274C20.8333 27.8578 21.1865 28.2324 21.6083 28.318C21.8021 28.3566 21.9931 28.3484 22.1723 28.2914C22.9871 28.0328 23.8485 28.0328 24.6641 28.2914C24.8431 28.348 25.0333 28.3574 25.2289 28.3176C25.6499 28.2324 26.0031 27.8578 26.0679 27.4274C26.1307 27.0094 25.9655 26.616 25.6257 26.3754C24.8733 25.8422 24.4245 25.0008 24.4245 24.1246C24.4245 23.5418 23.9979 23.0454 23.4733 23.0176C23.4553 23.0168 23.4369 23.016 23.4185 23.016Z" fill="#4C241D"/>
<path d="M29.6519 25.0137C30.5755 25.0137 31.3243 24.265 31.3243 23.3413C31.3243 22.4177 30.5755 21.6689 29.6519 21.6689C28.7283 21.6689 27.9795 22.4177 27.9795 23.3413C27.9795 24.265 28.7283 25.0137 29.6519 25.0137Z" fill="#E7D1C4"/>
<path d="M29.6516 25.8135C28.2884 25.8135 27.1794 24.7045 27.1794 23.3413C27.1794 21.9781 28.2884 20.8691 29.6516 20.8691C31.0148 20.8691 32.1238 21.9781 32.1238 23.3413C32.1238 24.7045 31.015 25.8135 29.6516 25.8135ZM29.6516 22.4691C29.1708 22.4691 28.7794 22.8605 28.7794 23.3413C28.7794 23.8221 29.1708 24.2135 29.6516 24.2135C30.1324 24.2135 30.5238 23.8221 30.5238 23.3413C30.5238 22.8605 30.1326 22.4691 29.6516 22.4691Z" fill="#4C241D"/>
<path d="M26.5352 20.3389C27.4588 20.3389 28.2076 19.5902 28.2076 18.6665C28.2076 17.7429 27.4588 16.9941 26.5352 16.9941C25.6116 16.9941 24.8628 17.7429 24.8628 18.6665C24.8628 19.5902 25.6116 20.3389 26.5352 20.3389Z" fill="#E7D1C4"/>
<path d="M26.5349 21.1387C25.1717 21.1387 24.0627 20.0297 24.0627 18.6665C24.0627 17.3033 25.1717 16.1943 26.5349 16.1943C27.8981 16.1943 29.0076 17.3033 29.0076 18.6665C29.0076 20.0297 27.8983 21.1387 26.5349 21.1387ZM26.5349 17.7943C26.0541 17.7943 25.6627 18.1857 25.6627 18.6665C25.6627 19.1473 26.0541 19.5387 26.5349 19.5387C27.0161 19.5387 27.4075 19.1473 27.4075 18.6665C27.4075 18.1857 27.0163 17.7943 26.5349 17.7943Z" fill="#4C241D"/>
<path d="M21.0806 20.3389C22.0042 20.3389 22.753 19.5902 22.753 18.6665C22.753 17.7429 22.0042 16.9941 21.0806 16.9941C20.157 16.9941 19.4082 17.7429 19.4082 18.6665C19.4082 19.5902 20.157 20.3389 21.0806 20.3389Z" fill="#E7D1C4"/>
<path d="M21.0806 21.1387C19.7174 21.1387 18.6084 20.0297 18.6084 18.6665C18.6084 17.3033 19.7174 16.1943 21.0806 16.1943C22.4438 16.1943 23.5528 17.3033 23.5528 18.6665C23.5528 20.0297 22.4438 21.1387 21.0806 21.1387ZM21.0806 17.7943C20.5998 17.7943 20.2084 18.1857 20.2084 18.6665C20.2084 19.1473 20.5998 19.5387 21.0806 19.5387C21.5614 19.5387 21.9528 19.1473 21.9528 18.6665C21.9528 18.1857 21.5614 17.7943 21.0806 17.7943Z" fill="#4C241D"/>
<path d="M17.1849 25.0137C18.1085 25.0137 18.8573 24.265 18.8573 23.3413C18.8573 22.4177 18.1085 21.6689 17.1849 21.6689C16.2612 21.6689 15.5125 22.4177 15.5125 23.3413C15.5125 24.265 16.2612 25.0137 17.1849 25.0137Z" fill="#E7D1C4"/>
<path d="M17.1848 25.8135C15.8216 25.8135 14.7126 24.7045 14.7126 23.3413C14.7126 21.9781 15.8216 20.8691 17.1848 20.8691C18.548 20.8691 19.657 21.9781 19.657 23.3413C19.657 24.7045 18.5482 25.8135 17.1848 25.8135ZM17.1848 22.4691C16.704 22.4691 16.3126 22.8605 16.3126 23.3413C16.3126 23.8221 16.704 24.2135 17.1848 24.2135C17.6656 24.2135 18.057 23.8221 18.057 23.3413C18.057 22.8605 17.6658 22.4691 17.1848 22.4691Z" fill="#4C241D"/>
<path d="M46.8593 44.578C49.4297 44.578 51.5133 42.4944 51.5133 39.924C51.5133 37.3537 49.4297 35.27 46.8593 35.27C44.289 35.27 42.2053 37.3537 42.2053 39.924C42.2053 42.4944 44.289 44.578 46.8593 44.578Z" fill="#FC8C29"/>
<path d="M46.859 45.3777C43.8516 45.3777 41.405 42.9313 41.405 39.9237C41.405 36.9161 43.8514 34.4697 46.859 34.4697C49.8666 34.4697 52.3132 36.9161 52.3132 39.9237C52.3132 42.9313 49.8666 45.3777 46.859 45.3777ZM46.859 36.0699C44.734 36.0699 43.005 37.7989 43.005 39.9239C43.005 42.0489 44.734 43.7779 46.859 43.7779C48.9844 43.7779 50.7132 42.0489 50.7132 39.9239C50.7132 37.7989 48.9844 36.0699 46.859 36.0699Z" fill="#4C241D"/>
<path d="M46.8593 41.7475C47.8663 41.7475 48.6825 40.9312 48.6825 39.9243C48.6825 38.9173 47.8663 38.1011 46.8593 38.1011C45.8524 38.1011 45.0361 38.9173 45.0361 39.9243C45.0361 40.9312 45.8524 41.7475 46.8593 41.7475Z" fill="#4C241D"/>
<path d="M45.1999 11.2C44.7581 11.2 44.3999 10.8418 44.3999 10.4V8.8C44.3999 8.3582 44.7581 8 45.1999 8C45.6417 8 45.9999 8.3582 45.9999 8.8V10.4C45.9999 10.8418 45.6417 11.2 45.1999 11.2Z" fill="#4C241D"/>
<path d="M45.1999 15.9998C44.7581 15.9998 44.3999 15.6416 44.3999 15.1998V13.5998C44.3999 13.158 44.7581 12.7998 45.1999 12.7998C45.6417 12.7998 45.9999 13.158 45.9999 13.5998V15.1998C45.9999 15.6416 45.6417 15.9998 45.1999 15.9998Z" fill="#4C241D"/>
<path d="M43.5999 12.8002H42C41.5582 12.8002 41.2 12.442 41.2 12.0002C41.2 11.5584 41.5582 11.2002 42 11.2002H43.5999C44.0417 11.2002 44.3999 11.5584 44.3999 12.0002C44.3999 12.442 44.0417 12.8002 43.5999 12.8002Z" fill="#4C241D"/>
<path d="M48.4 12.8002H46.8C46.3582 12.8002 46 12.442 46 12.0002C46 11.5584 46.3582 11.2002 46.8 11.2002H48.4C48.8418 11.2002 49.2 11.5584 49.2 12.0002C49.2 12.442 48.8418 12.8002 48.4 12.8002Z" fill="#4C241D"/>
<path d="M51.5451 19.9975C52.0174 19.9975 52.4003 19.6146 52.4003 19.1423C52.4003 18.67 52.0174 18.2871 51.5451 18.2871C51.0728 18.2871 50.6899 18.67 50.6899 19.1423C50.6899 19.6146 51.0728 19.9975 51.5451 19.9975Z" fill="#4C241D"/>
</svg>
