<svg width="60" height="60" viewBox="0 0 60 60" fill="none" xmlns="http://www.w3.org/2000/svg">
<path d="M31.6434 45.5232C40.2591 45.5232 47.2434 38.5389 47.2434 29.9232C47.2434 21.3076 40.2591 14.3232 31.6434 14.3232C23.0278 14.3232 16.0435 21.3076 16.0435 29.9232C16.0435 38.5389 23.0278 45.5232 31.6434 45.5232Z" fill="#EAEAEA"/>
<path d="M41.6127 29.2743C41.6127 26.4735 39.3329 24.1936 36.5321 24.1936C36.5154 24.1936 36.4974 24.1936 36.4807 24.1936C36.1277 21.7344 34.007 19.8388 31.4514 19.8388C31.0595 19.8388 30.6725 19.8838 30.2929 19.9738C29.493 18.1536 27.6757 16.9355 25.645 16.9355C23.6143 16.9355 21.7969 18.1536 20.9971 19.9738C20.6175 19.8838 20.2305 19.8388 19.8385 19.8388C17.283 19.8388 15.163 21.7344 14.8093 24.1936C14.7926 24.1936 14.7745 24.1936 14.7579 24.1936C11.9571 24.1936 9.67725 26.4735 9.67725 29.2743C9.67725 30.167 9.91257 31.0459 10.3573 31.8167L16.2095 31.4517L17.6611 35.8065H33.6289C33.6289 35.8065 35.0542 31.8539 35.1124 31.4538L40.9319 31.8167C41.3774 31.0459 41.6127 30.167 41.6127 29.2743Z" fill="#EDEBDC"/>
<path d="M19.8389 30.0002V28.5486C21.4705 28.5486 22.909 27.4467 23.3371 25.8711L24.7381 26.2507C24.1391 28.4585 22.1237 30.0002 19.8389 30.0002Z" fill="#4C241D"/>
<path d="M9.67742 21.2904C8.47707 21.2904 7.5 20.3133 7.5 19.113C7.5 17.9126 8.47707 16.9355 9.67742 16.9355C10.8778 16.9355 11.8548 17.9126 11.8548 19.113C11.8548 20.3133 10.8778 21.2904 9.67742 21.2904ZM9.67742 18.3872C9.27695 18.3872 8.95161 18.7125 8.95161 19.113C8.95161 19.5134 9.27695 19.8388 9.67742 19.8388C10.0779 19.8388 10.4032 19.5134 10.4032 19.113C10.4032 18.7125 10.0779 18.3872 9.67742 18.3872Z" fill="#4C241D"/>
<path d="M16.2099 13.3065C14.6087 13.3065 13.3066 12.0044 13.3066 10.4032C13.3066 8.80206 14.6087 7.5 16.2099 7.5C17.811 7.5 19.1131 8.80206 19.1131 10.4032C19.1131 12.0044 17.811 13.3065 16.2099 13.3065ZM16.2099 8.95161C15.4093 8.95161 14.7583 9.60264 14.7583 10.4032C14.7583 11.2038 15.4093 11.8548 16.2099 11.8548C17.0105 11.8548 17.6615 11.2038 17.6615 10.4032C17.6615 9.60264 17.0105 8.95161 16.2099 8.95161Z" fill="#4C241D"/>
<path d="M37.9838 17.6614C36.3826 17.6614 35.0806 16.3594 35.0806 14.7582C35.0806 13.157 36.3826 11.855 37.9838 11.855C39.585 11.855 40.887 13.157 40.887 14.7582C40.887 16.3594 39.585 17.6614 37.9838 17.6614ZM37.9838 13.3066C37.1832 13.3066 36.5322 13.9576 36.5322 14.7582C36.5322 15.5588 37.1832 16.2098 37.9838 16.2098C38.7844 16.2098 39.4354 15.5588 39.4354 14.7582C39.4354 13.9576 38.7844 13.3066 37.9838 13.3066Z" fill="#4C241D"/>
<path d="M44.5163 24.9193C43.3159 24.9193 42.3389 23.9422 42.3389 22.7419C42.3389 21.5415 43.3159 20.5645 44.5163 20.5645C45.7166 20.5645 46.6937 21.5415 46.6937 22.7419C46.6937 23.9422 45.7166 24.9193 44.5163 24.9193ZM44.5163 22.0161C44.1158 22.0161 43.7905 22.3414 43.7905 22.7419C43.7905 23.1423 44.1158 23.4677 44.5163 23.4677C44.9168 23.4677 45.2421 23.1423 45.2421 22.7419C45.2421 22.3414 44.9168 22.0161 44.5163 22.0161Z" fill="#4C241D"/>
<path d="M30 23.4678H31.4516V24.9194H30V23.4678Z" fill="#4C241D"/>
<path d="M13.3066 27.8223H14.7583V29.2739H13.3066V27.8223Z" fill="#4C241D"/>
<path d="M24.9194 20.5645H26.371V22.0161H24.9194V20.5645Z" fill="#4C241D"/>
<path d="M26.3711 31.4517H27.8227V32.9033H26.3711V31.4517Z" fill="#4C241D"/>
<path d="M16.2095 41.6128H32.903V43.0644H16.2095V41.6128Z" fill="#4C241D"/>
<path d="M34.5571 30.7259L34.1346 31.9926C33.3631 31.3139 32.9031 30.3368 32.9031 29.2896L32.9059 29.2314L31.455 29.1836L31.4515 29.2743C31.4515 30.9634 32.2811 32.5114 33.6484 33.4527L33.1054 35.0808H18.1846L16.733 30.7259H8.11475L10.9584 50.631C11.1108 51.6967 12.0369 52.5001 13.1132 52.5001H38.1762C38.8162 52.5001 39.4215 52.2177 39.8369 51.7272L38.7283 50.7902C38.5898 50.9542 38.3888 51.0485 38.1769 51.0485H13.1132C12.7549 51.0485 12.4455 50.7806 12.3955 50.4258L11.3437 43.0646H14.7579V41.613H11.137L10.9294 40.1614H33.6289V38.7098H10.7217L9.78821 32.1775H15.6861L17.1377 36.5324H34.1516L35.6032 32.1775H41.5011L41.4104 32.8112L42.8475 33.0164L43.1753 30.7259H34.5571Z" fill="#4C241D"/>
<path d="M42.3385 52.5003C36.7352 52.5003 32.1772 47.9424 32.1772 42.339C32.1772 36.7356 36.7352 32.1777 42.3385 32.1777C47.9419 32.1777 52.4998 36.7356 52.4998 42.339C52.4998 47.9424 47.9419 52.5003 42.3385 52.5003Z" fill="#219653"/>
<path d="M42.3386 40.161C41.1382 40.161 40.1611 39.1839 40.1611 37.9836C40.1611 36.7832 41.1382 35.8062 42.3386 35.8062C43.5389 35.8062 44.516 36.7832 44.516 37.9836C44.516 39.1839 43.5389 40.161 42.3386 40.161ZM42.3386 37.2578C41.9381 37.2578 41.6127 37.5831 41.6127 37.9836C41.6127 38.384 41.9381 38.7094 42.3386 38.7094C42.739 38.7094 43.0644 38.384 43.0644 37.9836C43.0644 37.5831 42.739 37.2578 42.3386 37.2578Z" fill="white"/>
<path d="M37.7199 42.0751C37.1383 42.0751 36.5911 41.8486 36.1804 41.4368C35.7696 41.0267 35.5425 40.4796 35.5425 39.8976C35.5425 39.3161 35.7689 38.7689 36.1804 38.3581C37.0033 37.5356 38.4376 37.5356 39.259 38.3581H39.2598C39.6709 38.7696 39.8973 39.3161 39.8973 39.8976C39.8973 40.4796 39.6709 41.0267 39.259 41.4375C38.8483 41.8479 38.3018 42.0751 37.7199 42.0751ZM37.7199 39.1718C37.526 39.1718 37.3439 39.2473 37.2067 39.3845C37.0703 39.5216 36.9941 39.7038 36.9941 39.8976C36.9941 40.0918 37.0696 40.2733 37.2067 40.4097C37.4825 40.6851 37.9591 40.6858 38.232 40.4104C38.3702 40.2733 38.4457 40.0918 38.4457 39.8976C38.4457 39.7038 38.3702 39.5216 38.2327 39.3845H38.232C38.0949 39.2462 37.9134 39.1718 37.7199 39.1718Z" fill="white"/>
<path d="M46.9577 42.0751C46.3758 42.0751 45.8286 41.8486 45.4178 41.4368C45.0074 41.0267 44.7803 40.4796 44.7803 39.8976C44.7803 39.3161 45.0067 38.7689 45.4185 38.3581C46.2386 37.5356 47.6743 37.5356 48.4972 38.3581C48.9079 38.7689 49.1351 39.3161 49.1351 39.8976C49.1351 40.4796 48.9087 41.026 48.4972 41.4368V41.4375C48.0857 41.8486 47.5393 42.0751 46.9577 42.0751ZM46.9577 39.1718C46.7635 39.1718 46.582 39.2473 46.4456 39.3845C46.3084 39.5216 46.2319 39.7038 46.2319 39.8976C46.2319 40.0918 46.3074 40.2733 46.4449 40.4097C46.7192 40.6865 47.1958 40.6851 47.4709 40.4104V40.4097C47.608 40.2733 47.6835 40.0918 47.6835 39.8976C47.6835 39.7038 47.608 39.5216 47.4709 39.3845C47.3337 39.2473 47.1515 39.1718 46.9577 39.1718Z" fill="white"/>
<path d="M42.3389 48.8709C39.4903 48.8709 37.2583 47.2771 37.2583 45.2418C37.2583 43.2065 39.4903 41.6128 42.3389 41.6128C45.1876 41.6128 47.4196 43.2065 47.4196 45.2418C47.4196 47.2771 45.1876 48.8709 42.3389 48.8709ZM42.3389 43.0644C40.372 43.0644 38.7099 44.0617 38.7099 45.2418C38.7099 46.422 40.372 47.4192 42.3389 47.4192C44.3059 47.4192 45.968 46.422 45.968 45.2418C45.968 44.0617 44.3059 43.0644 42.3389 43.0644Z" fill="white"/>
</svg>
