<svg width="60" height="60" viewBox="0 0 60 60" fill="none" xmlns="http://www.w3.org/2000/svg">
<path d="M23.1999 49.6004C31.8155 49.6004 38.7999 42.616 38.7999 34.0004C38.7999 25.3847 31.8155 18.4004 23.1999 18.4004C14.5842 18.4004 7.59985 25.3847 7.59985 34.0004C7.59985 42.616 14.5842 49.6004 23.1999 49.6004Z" fill="#EAEAEA"/>
<path d="M45.1997 11.2C44.7579 11.2 44.3997 10.8418 44.3997 10.4V8.8C44.3997 8.3582 44.7579 8 45.1997 8C45.6415 8 45.9997 8.3582 45.9997 8.8V10.4C45.9997 10.8418 45.6415 11.2 45.1997 11.2Z" fill="#4C241D"/>
<path d="M45.1997 15.9998C44.7579 15.9998 44.3997 15.6416 44.3997 15.1998V13.5998C44.3997 13.158 44.7579 12.7998 45.1997 12.7998C45.6415 12.7998 45.9997 13.158 45.9997 13.5998V15.1998C45.9997 15.6416 45.6415 15.9998 45.1997 15.9998Z" fill="#4C241D"/>
<path d="M43.5997 12.8002H41.9997C41.5579 12.8002 41.1997 12.442 41.1997 12.0002C41.1997 11.5584 41.5579 11.2002 41.9997 11.2002H43.5997C44.0415 11.2002 44.3997 11.5584 44.3997 12.0002C44.3997 12.442 44.0415 12.8002 43.5997 12.8002Z" fill="#4C241D"/>
<path d="M48.3998 12.8002H46.7998C46.358 12.8002 45.9998 12.442 45.9998 12.0002C45.9998 11.5584 46.358 11.2002 46.7998 11.2002H48.3998C48.8416 11.2002 49.1998 11.5584 49.1998 12.0002C49.1998 12.442 48.8416 12.8002 48.3998 12.8002Z" fill="#4C241D"/>
<path d="M51.5449 19.9975C52.0172 19.9975 52.4001 19.6146 52.4001 19.1423C52.4001 18.67 52.0172 18.2871 51.5449 18.2871C51.0726 18.2871 50.6897 18.67 50.6897 19.1423C50.6897 19.6146 51.0726 19.9975 51.5449 19.9975Z" fill="#4C241D"/>
<path d="M43.764 30.9934V39.6307L49.2141 37.5593L41.662 18.5918L10.7852 30.9934" fill="#6F9935"/>
<path d="M45.3346 39.0338V29.4229H14.6956L12.3557 30.3627V30.9933H43.7641V39.6306L45.3346 39.0338Z" fill="#658B30"/>
<path d="M10.7852 30.9932H43.764V51.4086H10.7852V30.9932Z" fill="#79A73A"/>
<path d="M13.926 37.8321C15.7028 37.3005 17.0928 35.9105 17.6244 34.1338H36.9248C37.4563 35.9106 38.8464 37.3006 40.6232 37.8321V44.5692C38.8464 45.1007 37.4563 46.4907 36.9248 48.2676H17.8521H17.6236C17.0922 46.491 15.7025 45.101 13.926 44.5692V37.8321Z" fill="#AAC16B"/>
<path d="M27.2747 45.127C29.443 45.127 31.2007 43.3693 31.2007 41.201C31.2007 39.0327 29.443 37.2749 27.2747 37.2749C25.1064 37.2749 23.3486 39.0327 23.3486 41.201C23.3486 43.3693 25.1064 45.127 27.2747 45.127Z" fill="#79A73A"/>
<path d="M43.22 30.9932L41.3582 26.2034L41.2734 25.9922C39.4265 26.156 37.621 25.3796 36.4695 23.9263L36.2591 24.0111L19.4226 30.9932H43.22Z" fill="#AAC16B"/>
<path d="M23.2097 29.4229L19.4226 30.9933H43.22L42.6099 29.4229H23.2097Z" fill="#89B140"/>
<path d="M18.6373 41.9864C19.0709 41.9864 19.4225 41.6349 19.4225 41.2012C19.4225 40.7676 19.0709 40.416 18.6373 40.416C18.2036 40.416 17.8521 40.7676 17.8521 41.2012C17.8521 41.6349 18.2036 41.9864 18.6373 41.9864Z" fill="#79A73A"/>
<path d="M35.9119 41.9864C36.3456 41.9864 36.6971 41.6349 36.6971 41.2012C36.6971 40.7676 36.3456 40.416 35.9119 40.416C35.4783 40.416 35.1267 40.7676 35.1267 41.2012C35.1267 41.6349 35.4783 41.9864 35.9119 41.9864Z" fill="#79A73A"/>
<path d="M10.7852 52.1936H43.7641C44.1977 52.1936 44.5493 51.8421 44.5493 51.4084V40.2584L49.5055 38.2844C49.9083 38.1237 50.1045 37.6669 49.9439 37.2641C49.9438 37.2639 49.9438 37.2638 49.9437 37.2636L42.3915 18.3008C42.2312 17.8979 41.7745 17.7012 41.3716 17.8615C41.3713 17.8616 41.371 17.8617 41.3707 17.8619L10.7326 30.0617C10.6077 30.1157 10.4993 30.2018 10.4185 30.3114C10.1637 30.4438 10.0027 30.7059 10 30.9929V51.4084C10 51.8421 10.3516 52.1936 10.7852 52.1936ZM42.9788 50.6232H11.5704V31.7782H42.9788V50.6232ZM36.2488 24.9727C37.4222 26.2061 39.0481 26.9071 40.7504 26.9138L42.0617 30.2117H23.1012L36.2488 24.9727ZM48.195 37.1176L44.5493 38.5718V30.9929C44.5493 30.5593 44.1977 30.2077 43.7641 30.2077H43.7515L42.0876 26.0288C42.0692 25.994 42.0477 25.9608 42.0232 25.9299C41.939 25.5517 41.5888 25.2937 41.2027 25.3253C39.6187 25.4697 38.0692 24.8024 37.0858 23.5523C36.8411 23.2503 36.4111 23.1752 36.0784 23.3764C36.0411 23.3808 36.0041 23.3877 35.9677 23.3968L19.9164 29.7884C19.7222 29.8646 19.5668 30.0157 19.4853 30.2077H14.6108L41.2231 19.6113L48.195 37.1176Z" fill="#4C241D"/>
<path d="M13.7015 45.3223C15.226 45.7729 16.4189 46.9644 16.8714 48.4883C16.9706 48.8209 17.2766 49.0488 17.6236 49.0489C17.6644 49.0464 17.7048 49.0403 17.7446 49.0308C17.7798 49.0409 17.8158 49.0482 17.8521 49.0528H36.6972C36.7296 49.0486 36.7616 49.042 36.793 49.0332C37.1853 49.1286 37.5806 48.888 37.6761 48.4957C37.6765 48.4943 37.6768 48.4929 37.6771 48.4914C38.1284 46.9659 39.3216 45.7728 40.847 45.3215C41.217 45.2084 41.4468 44.8398 41.3857 44.4578C41.3962 44.4197 41.4037 44.3808 41.4084 44.3416V38.0599C41.4038 38.0205 41.396 37.9817 41.3849 37.9437C41.4464 37.5616 41.2165 37.1927 40.8462 37.0799C39.3208 36.6287 38.1279 35.4351 37.6779 33.9093C37.5643 33.5368 37.192 33.3063 36.8079 33.3706C36.7716 33.3605 36.7346 33.3531 36.6972 33.3486H17.8521C17.8126 33.3533 17.7734 33.3612 17.7351 33.3722C17.3532 33.3113 16.9848 33.5411 16.8714 33.9108C16.4198 35.436 15.2268 36.6287 13.7015 37.0799C13.3316 37.193 13.1017 37.5617 13.1629 37.9437C13.1526 37.9819 13.1453 38.0206 13.1409 38.0599V44.3416C13.1454 44.3785 13.1527 44.415 13.1629 44.4507C13.0985 44.8353 13.3288 45.208 13.7015 45.3223ZM18.1709 34.9191H36.3776C37.0112 36.4958 38.2611 37.7454 39.838 38.3787V44.0228C38.2618 44.6567 37.0124 45.9062 36.3784 47.4824H18.1709C17.537 45.9062 16.2875 44.6567 14.7113 44.0228V38.3787C16.288 37.7454 17.5377 36.4958 18.1709 34.9191Z" fill="#4C241D"/>
<path d="M27.2747 45.9123C29.8767 45.9123 31.986 43.803 31.986 41.201C31.986 38.599 29.8767 36.4897 27.2747 36.4897C24.6727 36.4897 22.5635 38.599 22.5635 41.201C22.566 43.8019 24.6738 45.9097 27.2747 45.9123ZM27.2747 38.0602C29.0094 38.0602 30.4156 39.4664 30.4156 41.201C30.4156 42.9356 29.0094 44.3418 27.2747 44.3418C25.5401 44.3418 24.1339 42.9356 24.1339 41.201C24.1339 39.4664 25.5401 38.0602 27.2747 38.0602Z" fill="#4C241D"/>
<path d="M18.6373 42.3791C19.2877 42.3791 19.8151 41.8517 19.8151 41.2013C19.8151 40.5508 19.2877 40.0234 18.6373 40.0234C17.9868 40.0234 17.4595 40.5508 17.4595 41.2013C17.4595 41.8517 17.9868 42.3791 18.6373 42.3791ZM18.6373 40.8086C18.8541 40.8086 19.0299 40.9844 19.0299 41.2013C19.0299 41.4181 18.8541 41.5939 18.6373 41.5939C18.4205 41.5939 18.2447 41.4181 18.2447 41.2013C18.2447 40.9844 18.4205 40.8086 18.6373 40.8086Z" fill="#4C241D"/>
<path d="M35.9119 42.3791C36.5624 42.3791 37.0898 41.8517 37.0898 41.2013C37.0898 40.5508 36.5624 40.0234 35.9119 40.0234C35.2615 40.0234 34.7341 40.5508 34.7341 41.2013C34.7341 41.8517 35.2615 42.3791 35.9119 42.3791ZM35.9119 40.8086C36.1288 40.8086 36.3046 40.9844 36.3046 41.2013C36.3046 41.4181 36.1288 41.5939 35.9119 41.5939C35.6951 41.5939 35.5193 41.4181 35.5193 41.2013C35.5193 40.9844 35.6951 40.8086 35.9119 40.8086Z" fill="#4C241D"/>
</svg>
