<svg width="60" height="60" viewBox="0 0 60 60" fill="none" xmlns="http://www.w3.org/2000/svg">
<path d="M30.769 37.6048C39.3846 37.6048 46.369 30.6204 46.369 22.0048C46.369 13.3891 39.3846 6.40479 30.769 6.40479C22.1533 6.40479 15.1689 13.3891 15.1689 22.0048C15.1689 30.6204 22.1533 37.6048 30.769 37.6048Z" fill="#EAEAEA"/>
<path d="M43.989 8.7957C43.9882 8.7957 43.9866 8.7957 43.985 8.7957C43.5436 8.7937 43.1874 8.4339 43.189 7.9921L43.196 6.3921C43.1976 5.9515 43.5554 5.5957 43.996 5.5957H43.9992C44.4414 5.5977 44.7976 5.9575 44.796 6.3993L44.789 7.9993C44.7874 8.4397 44.4296 8.7957 43.989 8.7957Z" fill="#4C241D"/>
<path d="M43.9655 13.5955C43.9639 13.5955 43.9631 13.5955 43.9615 13.5955C43.5193 13.5931 43.1631 13.2333 43.1655 12.7915L43.1733 11.1915C43.1757 10.7509 43.5335 10.3955 43.9733 10.3955H43.9773C44.4196 10.3979 44.7758 10.7577 44.7734 11.1995L44.7656 12.7995C44.7632 13.2399 44.4053 13.5955 43.9655 13.5955Z" fill="#4C241D"/>
<path d="M42.381 10.3876C42.3794 10.3876 42.3786 10.3876 42.377 10.3876L40.777 10.3798C40.3348 10.3774 39.9786 10.0176 39.981 9.57579C39.9842 9.13359 40.3178 8.80239 40.785 8.77979L42.385 8.78759C42.8272 8.78999 43.1834 9.14979 43.181 9.59159C43.1786 10.032 42.8208 10.3876 42.381 10.3876Z" fill="#4C241D"/>
<path d="M47.1808 10.411C47.1792 10.411 47.1784 10.411 47.1768 10.411L45.5768 10.4032C45.1346 10.4008 44.7784 10.041 44.7808 9.59922C44.7832 9.15742 45.173 8.80282 45.5848 8.80322L47.1848 8.81102C47.627 8.81342 47.9832 9.17322 47.9808 9.61502C47.9784 10.0554 47.6206 10.411 47.1808 10.411Z" fill="#4C241D"/>
<path d="M9.56885 12.8052H39.1688V53.6052H9.56885V12.8052Z" fill="#C1DBDC"/>
<path d="M39.169 54.4049H9.56904C9.12684 54.4049 8.76904 54.0467 8.76904 53.6049V12.8049C8.76904 12.3631 9.12684 12.0049 9.56904 12.0049H39.169C39.6112 12.0049 39.969 12.3631 39.969 12.8049V53.6049C39.969 54.0467 39.6112 54.4049 39.169 54.4049ZM10.369 52.8049H38.369V13.6049H10.369V52.8049Z" fill="#4C241D"/>
<path d="M19.9691 20.8051H13.569C13.1268 20.8051 12.769 20.4469 12.769 20.0051C12.769 19.5633 13.1268 19.2051 13.569 19.2051H19.9691C20.4113 19.2051 20.7691 19.5633 20.7691 20.0051C20.7691 20.4469 20.4113 20.8051 19.9691 20.8051Z" fill="#4C241D"/>
<path d="M22.369 25.6049H13.569C13.1268 25.6049 12.769 25.2467 12.769 24.8049C12.769 24.3631 13.1268 24.0049 13.569 24.0049H22.369C22.8112 24.0049 23.169 24.3631 23.169 24.8049C23.169 25.2467 22.8112 25.6049 22.369 25.6049Z" fill="#4C241D"/>
<path d="M31.169 30.4052H13.569C13.1268 30.4052 12.769 30.047 12.769 29.6052C12.769 29.1634 13.1268 28.8052 13.569 28.8052H31.169C31.6112 28.8052 31.969 29.1634 31.969 29.6052C31.969 30.047 31.6112 30.4052 31.169 30.4052Z" fill="#4C241D"/>
<path d="M31.169 35.2045H13.569C13.1268 35.2045 12.769 34.8463 12.769 34.4045C12.769 33.9627 13.1268 33.6045 13.569 33.6045H31.169C31.6112 33.6045 31.969 33.9627 31.969 34.4045C31.969 34.8463 31.6112 35.2045 31.169 35.2045Z" fill="#4C241D"/>
<path d="M33.1689 18.4049H31.9689V17.2049C31.9689 16.5421 31.4317 16.0049 30.7689 16.0049C30.1061 16.0049 29.5689 16.5421 29.5689 17.2049V18.4049H28.3689C27.7061 18.4049 27.1689 18.9421 27.1689 19.6049C27.1689 20.2677 27.7061 20.8049 28.3689 20.8049H29.5689V22.0049C29.5689 22.6677 30.1061 23.2049 30.7689 23.2049C31.4317 23.2049 31.9689 22.6677 31.9689 22.0049V20.8049H33.1689C33.8317 20.8049 34.3689 20.2677 34.3689 19.6049C34.3689 18.9423 33.8317 18.4049 33.1689 18.4049Z" fill="#C1DBDC"/>
<path d="M30.7692 24.0046C29.6659 24.0046 28.7691 23.1074 28.7691 22.0046V21.6046H28.3691C27.2659 21.6046 26.3691 20.7074 26.3691 19.6046C26.3691 18.5018 27.2659 17.6046 28.3691 17.6046H28.7691V17.2046C28.7691 16.1018 29.6659 15.2046 30.7692 15.2046C31.8724 15.2046 32.7692 16.1018 32.7692 17.2046V17.6046H33.1692C34.2724 17.6046 35.1692 18.5018 35.1692 19.6046C35.1692 20.7074 34.2724 21.6046 33.1692 21.6046H32.7692V22.0046C32.7692 23.1074 31.8724 24.0046 30.7692 24.0046ZM28.3691 19.2046C28.1487 19.2046 27.9691 19.3838 27.9691 19.6046C27.9691 19.8254 28.1487 20.0046 28.3691 20.0046H29.5691C30.0113 20.0046 30.3692 20.3628 30.3692 20.8046V22.0046C30.3692 22.2254 30.5488 22.4046 30.7692 22.4046C30.9896 22.4046 31.1692 22.2254 31.1692 22.0046V20.8046C31.1692 20.3628 31.527 20.0046 31.9692 20.0046H33.1692C33.3896 20.0046 33.5692 19.8254 33.5692 19.6046C33.5692 19.3838 33.3896 19.2046 33.1692 19.2046H31.9692C31.527 19.2046 31.1692 18.8464 31.1692 18.4046V17.2046C31.1692 16.9838 30.9896 16.8046 30.7692 16.8046C30.5488 16.8046 30.3692 16.9838 30.3692 17.2046V18.4046C30.3692 18.8464 30.0113 19.2046 29.5691 19.2046H28.3691Z" fill="#4C241D"/>
<path d="M50.3752 19.456C50.8476 19.456 51.2304 19.0731 51.2304 18.6008C51.2304 18.1285 50.8476 17.7456 50.3752 17.7456C49.9029 17.7456 49.52 18.1285 49.52 18.6008C49.52 19.0731 49.9029 19.456 50.3752 19.456Z" fill="#4C241D"/>
<path d="M25.5847 43.4646C25.5847 42.8256 25.1063 42.2528 24.4681 42.2194C23.7875 42.1838 23.2247 42.725 23.2247 43.3978V43.4646C23.2247 43.8856 23.0039 44.2648 22.6605 44.5084C22.2997 44.7642 22.0829 45.208 22.1571 45.7C22.2321 46.1978 22.6251 46.616 23.1185 46.716C23.3409 46.761 23.5553 46.7462 23.7489 46.6848C24.1807 46.5478 24.6285 46.5478 25.0601 46.6848C25.2537 46.7462 25.4683 46.7612 25.6907 46.716C26.1841 46.616 26.5771 46.198 26.6521 45.7C26.7263 45.208 26.5095 44.7642 26.1487 44.5084C25.8055 44.2648 25.5847 43.8854 25.5847 43.4646Z" fill="#FFDED5"/>
<path d="M23.3755 47.5415C23.2373 47.5415 23.0981 47.5279 22.9599 47.5001C22.1325 47.3321 21.4927 46.6567 21.3661 45.8189C21.2505 45.0529 21.5701 44.3005 22.1981 43.8553C22.3419 43.7537 22.4247 43.6111 22.4247 43.4647C22.4247 42.8573 22.6497 42.3339 23.0419 41.9615C23.4395 41.5833 23.9817 41.3935 24.5099 41.4205C25.5615 41.4755 26.3849 42.3737 26.3849 43.4647C26.3849 43.6107 26.4677 43.7537 26.6123 43.8565C27.2397 44.3003 27.5583 45.0523 27.4443 45.8179C27.3177 46.6569 26.6771 47.3323 25.8497 47.4999C25.5043 47.5687 25.1473 47.5515 24.8193 47.4475C24.5443 47.3599 24.2647 47.3603 23.9911 47.4471C23.7935 47.5099 23.5849 47.5415 23.3755 47.5415ZM24.4051 43.0177C24.2739 43.0177 24.1855 43.0821 24.1433 43.1219C24.0987 43.1641 24.0245 43.2555 24.0245 43.3977C24.0245 44.1267 23.6877 44.7605 23.1229 45.1609C22.9885 45.2563 22.9229 45.4129 22.9487 45.5801C22.9737 45.7477 23.1151 45.8989 23.2777 45.9317C23.3589 45.9477 23.4355 45.9449 23.5067 45.9219C24.0935 45.7355 24.7145 45.7347 25.3027 45.9219C25.3745 45.9453 25.4527 45.9485 25.5323 45.9313C25.6949 45.8985 25.8363 45.7477 25.8613 45.5805C25.8863 45.4137 25.8215 45.2563 25.6863 45.1613C25.1215 44.7593 24.7847 44.1253 24.7847 43.4645C24.7847 43.2329 24.6207 43.0281 24.4261 43.0181C24.4191 43.0177 24.4121 43.0177 24.4051 43.0177Z" fill="#4C241D"/>
<path d="M28.4769 44.1783C29.1536 44.1783 29.7023 43.6297 29.7023 42.9529C29.7023 42.2762 29.1536 41.7275 28.4769 41.7275C27.8001 41.7275 27.2515 42.2762 27.2515 42.9529C27.2515 43.6297 27.8001 44.1783 28.4769 44.1783Z" fill="#4C241D"/>
<path d="M26.4407 41.1246C27.1175 41.1246 27.6661 40.576 27.6661 39.8992C27.6661 39.2225 27.1175 38.6738 26.4407 38.6738C25.764 38.6738 25.2153 39.2225 25.2153 39.8992C25.2153 40.576 25.764 41.1246 26.4407 41.1246Z" fill="#4C241D"/>
<path d="M22.8778 41.1246C23.5545 41.1246 24.1032 40.576 24.1032 39.8992C24.1032 39.2225 23.5545 38.6738 22.8778 38.6738C22.201 38.6738 21.6523 39.2225 21.6523 39.8992C21.6523 40.576 22.201 41.1246 22.8778 41.1246Z" fill="#4C241D"/>
<path d="M20.3328 44.1783C21.0096 44.1783 21.5582 43.6297 21.5582 42.9529C21.5582 42.2762 21.0096 41.7275 20.3328 41.7275C19.6561 41.7275 19.1074 42.2762 19.1074 42.9529C19.1074 43.6297 19.6561 44.1783 20.3328 44.1783Z" fill="#4C241D"/>
<path d="M42.3385 52.5003C36.7352 52.5003 32.1772 47.9424 32.1772 42.339C32.1772 36.7356 36.7352 32.1777 42.3385 32.1777C47.9419 32.1777 52.4998 36.7356 52.4998 42.339C52.4998 47.9424 47.9419 52.5003 42.3385 52.5003Z" fill="#219653"/>
<path d="M36.4883 41.6562H37.0898C37.3763 41.6562 37.5885 41.5846 37.7266 41.4414C37.8646 41.2982 37.9336 41.1081 37.9336 40.8711C37.9336 40.6419 37.8646 40.4635 37.7266 40.3359C37.5911 40.2083 37.4036 40.1445 37.1641 40.1445C36.9479 40.1445 36.7669 40.2044 36.6211 40.3242C36.4753 40.4414 36.4023 40.5951 36.4023 40.7852H35.2734C35.2734 40.4883 35.3529 40.2227 35.5117 39.9883C35.6732 39.7513 35.8971 39.5664 36.1836 39.4336C36.4727 39.3008 36.7904 39.2344 37.1367 39.2344C37.7383 39.2344 38.2096 39.3789 38.5508 39.668C38.8919 39.9544 39.0625 40.3503 39.0625 40.8555C39.0625 41.1159 38.9831 41.3555 38.8242 41.5742C38.6654 41.793 38.457 41.9609 38.1992 42.0781C38.5195 42.1927 38.7578 42.3646 38.9141 42.5938C39.0729 42.8229 39.1523 43.0938 39.1523 43.4062C39.1523 43.9115 38.9674 44.3164 38.5977 44.6211C38.2305 44.9258 37.7435 45.0781 37.1367 45.0781C36.569 45.0781 36.1042 44.9284 35.7422 44.6289C35.3828 44.3294 35.2031 43.9336 35.2031 43.4414H36.332C36.332 43.6549 36.4115 43.8294 36.5703 43.9648C36.7318 44.1003 36.9297 44.168 37.1641 44.168C37.4323 44.168 37.6419 44.0977 37.793 43.957C37.9466 43.8138 38.0234 43.625 38.0234 43.3906C38.0234 42.8229 37.7109 42.5391 37.0859 42.5391H36.4883V41.6562ZM43.7617 42.6484C43.7617 43.4349 43.599 44.0365 43.2734 44.4531C42.9479 44.8698 42.4714 45.0781 41.8438 45.0781C41.224 45.0781 40.75 44.8737 40.4219 44.4648C40.0938 44.056 39.9258 43.4701 39.918 42.707V41.6602C39.918 40.8659 40.082 40.263 40.4102 39.8516C40.7409 39.4401 41.2161 39.2344 41.8359 39.2344C42.4557 39.2344 42.9297 39.4388 43.2578 39.8477C43.5859 40.2539 43.7539 40.8385 43.7617 41.6016V42.6484ZM42.6328 41.5C42.6328 41.0286 42.5677 40.6862 42.4375 40.4727C42.3099 40.2565 42.1094 40.1484 41.8359 40.1484C41.5703 40.1484 41.3737 40.2513 41.2461 40.457C41.1211 40.6602 41.0547 40.9792 41.0469 41.4141V42.7969C41.0469 43.2604 41.1094 43.6055 41.2344 43.832C41.362 44.056 41.5651 44.168 41.8438 44.168C42.1198 44.168 42.319 44.0599 42.4414 43.8438C42.5638 43.6276 42.6276 43.2969 42.6328 42.8516V41.5ZM44.5117 40.4062C44.5117 40.0573 44.625 39.7747 44.8516 39.5586C45.0781 39.3398 45.375 39.2305 45.7422 39.2305C46.1146 39.2305 46.4141 39.3385 46.6406 39.5547C46.8672 39.7682 46.9805 40.0586 46.9805 40.4258V40.707C46.9805 41.0586 46.8672 41.3411 46.6406 41.5547C46.4141 41.7682 46.1172 41.875 45.75 41.875C45.3802 41.875 45.0807 41.7682 44.8516 41.5547C44.625 41.3385 44.5117 41.0482 44.5117 40.6836V40.4062ZM45.2617 40.707C45.2617 40.8633 45.306 40.9896 45.3945 41.0859C45.4857 41.1797 45.6042 41.2266 45.75 41.2266C45.8958 41.2266 46.0117 41.1784 46.0977 41.082C46.1836 40.9857 46.2266 40.8568 46.2266 40.6953V40.4062C46.2266 40.25 46.1836 40.1237 46.0977 40.0273C46.0117 39.931 45.8932 39.8828 45.7422 39.8828C45.599 39.8828 45.4831 39.931 45.3945 40.0273C45.306 40.1211 45.2617 40.2526 45.2617 40.4219V40.707ZM47.2305 43.6055C47.2305 43.2539 47.3451 42.9714 47.5742 42.7578C47.8034 42.5417 48.1003 42.4336 48.4648 42.4336C48.8346 42.4336 49.1328 42.5404 49.3594 42.7539C49.5885 42.9648 49.7031 43.2565 49.7031 43.6289V43.9102C49.7031 44.2591 49.5911 44.5417 49.3672 44.7578C49.1432 44.9714 48.8451 45.0781 48.4727 45.0781C48.0977 45.0781 47.7969 44.9701 47.5703 44.7539C47.3438 44.5378 47.2305 44.2513 47.2305 43.8945V43.6055ZM47.9805 43.9102C47.9805 44.0534 48.0273 44.1758 48.1211 44.2773C48.2148 44.3789 48.332 44.4297 48.4727 44.4297C48.7904 44.4297 48.9492 44.2539 48.9492 43.9023V43.6055C48.9492 43.4492 48.9049 43.3242 48.8164 43.2305C48.7279 43.1341 48.6107 43.0859 48.4648 43.0859C48.319 43.0859 48.2018 43.1341 48.1133 43.2305C48.0247 43.3242 47.9805 43.4531 47.9805 43.6172V43.9102ZM45.9727 44.5742L45.4219 44.2773L48.1992 39.832L48.75 40.1289L45.9727 44.5742Z" fill="white"/>
</svg>
