<svg width="60" height="60" viewBox="0 0 60 60" fill="none" xmlns="http://www.w3.org/2000/svg">
<path d="M22.6767 44.0323C31.2923 44.0323 38.2767 37.0479 38.2767 28.4323C38.2767 19.8166 31.2923 12.8323 22.6767 12.8323C14.061 12.8323 7.07666 19.8166 7.07666 28.4323C7.07666 37.0479 14.061 44.0323 22.6767 44.0323Z" fill="#EAEAEA"/>
<path d="M4.00019 3.2C3.55839 3.2 3.2002 2.8418 3.2002 2.4V0.799999C3.2002 0.358199 3.55839 0 4.00019 0C4.44199 0 4.80019 0.358199 4.80019 0.799999V2.4C4.80019 2.8418 4.44199 3.2 4.00019 3.2Z" fill="#4C241D"/>
<path d="M4.00019 8.00005C3.55839 8.00005 3.2002 7.64185 3.2002 7.20005V5.60005C3.2002 5.15825 3.55839 4.80005 4.00019 4.80005C4.44199 4.80005 4.80019 5.15825 4.80019 5.60005V7.20005C4.80019 7.64185 4.44199 8.00005 4.00019 8.00005Z" fill="#4C241D"/>
<path d="M2.4 4.79995H0.799999C0.358199 4.79995 0 4.44175 0 3.99995C0 3.55815 0.358199 3.19995 0.799999 3.19995H2.4C2.8418 3.19995 3.2 3.55815 3.2 3.99995C3.2 4.44175 2.8418 4.79995 2.4 4.79995Z" fill="#4C241D"/>
<path d="M7.19981 4.79995H5.59981C5.15801 4.79995 4.7998 4.44175 4.7998 3.99995C4.7998 3.55815 5.15801 3.19995 5.59981 3.19995H7.19981C7.64161 3.19995 7.99981 3.55815 7.99981 3.99995C7.99981 4.44175 7.64161 4.79995 7.19981 4.79995Z" fill="#4C241D"/>
<path d="M13.6203 3.50849C14.0927 3.50849 14.4755 3.12561 14.4755 2.65329C14.4755 2.18098 14.0927 1.7981 13.6203 1.7981C13.148 1.7981 12.7651 2.18098 12.7651 2.65329C12.7651 3.12561 13.148 3.50849 13.6203 3.50849Z" fill="#4C241D"/>
<path d="M53.8281 55H16.1719C15.5247 55 15 54.4753 15 53.8281V16.1719C15 15.5247 15.5247 15 16.1719 15H53.8281C54.4753 15 55 15.5247 55 16.1719V53.8281C55 54.4753 54.4753 55 53.8281 55ZM17.3438 52.6562H52.6562V17.3438H17.3438V52.6562Z" fill="#4C241D"/>
<path d="M17.3438 52.6562H52.6562V17.3438H17.3438V52.6562Z" fill="#FFDED5"/>
<path d="M20.9375 24.4531C20.2903 24.4531 19.7656 23.9284 19.7656 23.2812V20.9375C19.7656 20.2903 20.2903 19.7656 20.9375 19.7656C21.5847 19.7656 22.1094 20.2903 22.1094 20.9375V23.2812C22.1094 23.9284 21.5847 24.4531 20.9375 24.4531Z" fill="black"/>
<path d="M27.9688 31.4844C27.3216 31.4844 26.7969 30.9597 26.7969 30.3125V25.625C26.7969 24.9778 27.3216 24.4531 27.9688 24.4531C28.6159 24.4531 29.1406 24.9778 29.1406 25.625V30.3125C29.1406 30.9597 28.6159 31.4844 27.9688 31.4844Z" fill="black"/>
<path d="M35 24.4531C34.3528 24.4531 33.8281 23.9284 33.8281 23.2812V20.9375C33.8281 20.2903 34.3528 19.7656 35 19.7656C35.6472 19.7656 36.1719 20.2903 36.1719 20.9375V23.2812C36.1719 23.9284 35.6472 24.4531 35 24.4531Z" fill="black"/>
<path d="M49.0625 24.4531C48.4153 24.4531 47.8906 23.9284 47.8906 23.2812V20.9375C47.8906 20.2903 48.4153 19.7656 49.0625 19.7656C49.7097 19.7656 50.2344 20.2903 50.2344 20.9375V23.2812C50.2344 23.9284 49.7097 24.4531 49.0625 24.4531Z" fill="black"/>
<path d="M42.0312 31.4844C41.3841 31.4844 40.8594 30.9597 40.8594 30.3125V25.625C40.8594 24.9778 41.3841 24.4531 42.0312 24.4531C42.6784 24.4531 43.2031 24.9778 43.2031 25.625V30.3125C43.2031 30.9597 42.6784 31.4844 42.0312 31.4844Z" fill="black"/>
<path d="M30.3125 22.1094H25.625C24.9778 22.1094 24.4531 21.5847 24.4531 20.9375C24.4531 20.2903 24.9778 19.7656 25.625 19.7656H30.3125C30.9597 19.7656 31.4844 20.2903 31.4844 20.9375C31.4844 21.5847 30.9597 22.1094 30.3125 22.1094Z" fill="black"/>
<path d="M23.2812 29.1406H20.9375C20.2903 29.1406 19.7656 28.6159 19.7656 27.9688C19.7656 27.3216 20.2903 26.7969 20.9375 26.7969H23.2812C23.9284 26.7969 24.4531 27.3216 24.4531 27.9688C24.4531 28.6159 23.9284 29.1406 23.2812 29.1406Z" fill="black"/>
<path d="M49.0625 29.1406H46.7188C46.0716 29.1406 45.5469 28.6159 45.5469 27.9688C45.5469 27.3216 46.0716 26.7969 46.7188 26.7969H49.0625C49.7097 26.7969 50.2344 27.3216 50.2344 27.9688C50.2344 28.6159 49.7097 29.1406 49.0625 29.1406Z" fill="black"/>
<path d="M37.3438 29.1406H32.6562C32.0091 29.1406 31.4844 28.6159 31.4844 27.9688C31.4844 27.3216 32.0091 26.7969 32.6562 26.7969H37.3438C37.9909 26.7969 38.5156 27.3216 38.5156 27.9688C38.5156 28.6159 37.9909 29.1406 37.3438 29.1406Z" fill="black"/>
<path d="M27.9688 45.5469C27.3216 45.5469 26.7969 45.0222 26.7969 44.375V39.6875C26.7969 39.0403 27.3216 38.5156 27.9688 38.5156C28.6159 38.5156 29.1406 39.0403 29.1406 39.6875V44.375C29.1406 45.0222 28.6159 45.5469 27.9688 45.5469Z" fill="black"/>
<path d="M42.0312 45.5469C41.3841 45.5469 40.8594 45.0222 40.8594 44.375V39.6875C40.8594 39.0403 41.3841 38.5156 42.0312 38.5156C42.6784 38.5156 43.2031 39.0403 43.2031 39.6875V44.375C43.2031 45.0222 42.6784 45.5469 42.0312 45.5469Z" fill="black"/>
<path d="M23.2812 43.2031H20.9375C20.2903 43.2031 19.7656 42.6784 19.7656 42.0312C19.7656 41.3841 20.2903 40.8594 20.9375 40.8594H23.2812C23.9284 40.8594 24.4531 41.3841 24.4531 42.0312C24.4531 42.6784 23.9284 43.2031 23.2812 43.2031Z" fill="black"/>
<path d="M49.0625 43.2031H46.7188C46.0716 43.2031 45.5469 42.6784 45.5469 42.0312C45.5469 41.3841 46.0716 40.8594 46.7188 40.8594H49.0625C49.7097 40.8594 50.2344 41.3841 50.2344 42.0312C50.2344 42.6784 49.7097 43.2031 49.0625 43.2031Z" fill="black"/>
<path d="M37.3438 43.2031H32.6562C32.0091 43.2031 31.4844 42.6784 31.4844 42.0312C31.4844 41.3841 32.0091 40.8594 32.6562 40.8594H37.3438C37.9909 40.8594 38.5156 41.3841 38.5156 42.0312C38.5156 42.6784 37.9909 43.2031 37.3438 43.2031Z" fill="black"/>
<path d="M44.375 22.1094H39.6875C39.0403 22.1094 38.5156 21.5847 38.5156 20.9375C38.5156 20.2903 39.0403 19.7656 39.6875 19.7656H44.375C45.0222 19.7656 45.5469 20.2903 45.5469 20.9375C45.5469 21.5847 45.0222 22.1094 44.375 22.1094Z" fill="black"/>
<path d="M20.9375 38.5156C20.2903 38.5156 19.7656 37.9909 19.7656 37.3438V32.6562C19.7656 32.0091 20.2903 31.4844 20.9375 31.4844C21.5847 31.4844 22.1094 32.0091 22.1094 32.6562V37.3438C22.1094 37.9909 21.5847 38.5156 20.9375 38.5156Z" fill="black"/>
<path d="M35 38.5156C34.3528 38.5156 33.8281 37.9909 33.8281 37.3438V32.6562C33.8281 32.0091 34.3528 31.4844 35 31.4844C35.6472 31.4844 36.1719 32.0091 36.1719 32.6562V37.3438C36.1719 37.9909 35.6472 38.5156 35 38.5156Z" fill="black"/>
<path d="M49.0625 38.5156C48.4153 38.5156 47.8906 37.9909 47.8906 37.3438V32.6562C47.8906 32.0091 48.4153 31.4844 49.0625 31.4844C49.7097 31.4844 50.2344 32.0091 50.2344 32.6562V37.3438C50.2344 37.9909 49.7097 38.5156 49.0625 38.5156Z" fill="black"/>
<path d="M30.3125 36.1719H25.625C24.9778 36.1719 24.4531 35.6472 24.4531 35C24.4531 34.3528 24.9778 33.8281 25.625 33.8281H30.3125C30.9597 33.8281 31.4844 34.3528 31.4844 35C31.4844 35.6472 30.9597 36.1719 30.3125 36.1719Z" fill="black"/>
<path d="M44.375 36.1719H39.6875C39.0403 36.1719 38.5156 35.6472 38.5156 35C38.5156 34.3528 39.0403 33.8281 39.6875 33.8281H44.375C45.0222 33.8281 45.5469 34.3528 45.5469 35C45.5469 35.6472 45.0222 36.1719 44.375 36.1719Z" fill="black"/>
<path d="M20.9375 50.2344C20.2903 50.2344 19.7656 49.7097 19.7656 49.0625V46.7188C19.7656 46.0716 20.2903 45.5469 20.9375 45.5469C21.5847 45.5469 22.1094 46.0716 22.1094 46.7188V49.0625C22.1094 49.7097 21.5847 50.2344 20.9375 50.2344Z" fill="black"/>
<path d="M35 50.2344C34.3528 50.2344 33.8281 49.7097 33.8281 49.0625V46.7188C33.8281 46.0716 34.3528 45.5469 35 45.5469C35.6472 45.5469 36.1719 46.0716 36.1719 46.7188V49.0625C36.1719 49.7097 35.6472 50.2344 35 50.2344Z" fill="black"/>
<path d="M49.0625 50.2344C48.4153 50.2344 47.8906 49.7097 47.8906 49.0625V46.7188C47.8906 46.0716 48.4153 45.5469 49.0625 45.5469C49.7097 45.5469 50.2344 46.0716 50.2344 46.7188V49.0625C50.2344 49.7097 49.7097 50.2344 49.0625 50.2344Z" fill="black"/>
<path d="M30.3125 50.2344H25.625C24.9778 50.2344 24.4531 49.7097 24.4531 49.0625C24.4531 48.4153 24.9778 47.8906 25.625 47.8906H30.3125C30.9597 47.8906 31.4844 48.4153 31.4844 49.0625C31.4844 49.7097 30.9597 50.2344 30.3125 50.2344Z" fill="black"/>
<path d="M44.375 50.2344H39.6875C39.0403 50.2344 38.5156 49.7097 38.5156 49.0625C38.5156 48.4153 39.0403 47.8906 39.6875 47.8906H44.375C45.0222 47.8906 45.5469 48.4153 45.5469 49.0625C45.5469 49.7097 45.0222 50.2344 44.375 50.2344Z" fill="black"/>
</svg>
