<svg width="40" height="35" viewBox="0 0 40 35" fill="none" xmlns="http://www.w3.org/2000/svg">
<path d="M18.6665 34.6667C25.8462 34.6667 31.6665 28.8464 31.6665 21.6667C31.6665 14.487 25.8462 8.66667 18.6665 8.66667C11.4868 8.66667 5.6665 14.487 5.6665 21.6667C5.6665 28.8464 11.4868 34.6667 18.6665 34.6667Z" fill="#EAEAEA"/>
<path d="M3.83317 5.49999C3.465 5.49999 3.1665 5.20149 3.1665 4.83332V3.49999C3.1665 3.13183 3.465 2.83333 3.83317 2.83333C4.20133 2.83333 4.49983 3.13183 4.49983 3.49999V4.83332C4.49983 5.20149 4.20133 5.49999 3.83317 5.49999Z" fill="#4C241D"/>
<path d="M3.83317 9.5C3.465 9.5 3.1665 9.2015 3.1665 8.83333V7.5C3.1665 7.13183 3.465 6.83333 3.83317 6.83333C4.20133 6.83333 4.49983 7.13183 4.49983 7.5V8.83333C4.49983 9.2015 4.20133 9.5 3.83317 9.5Z" fill="#4C241D"/>
<path d="M2.5 6.83333H1.16667C0.7985 6.83333 0.5 6.53483 0.5 6.16667C0.5 5.7985 0.7985 5.5 1.16667 5.5H2.5C2.86816 5.5 3.16666 5.7985 3.16666 6.16667C3.16666 6.53483 2.86816 6.83333 2.5 6.83333Z" fill="#4C241D"/>
<path d="M6.5 6.83333H5.16667C4.7985 6.83333 4.5 6.53483 4.5 6.16667C4.5 5.7985 4.7985 5.5 5.16667 5.5H6.5C6.86817 5.5 7.16667 5.7985 7.16667 6.16667C7.16667 6.53483 6.86817 6.83333 6.5 6.83333Z" fill="#4C241D"/>
<path d="M39.0002 31.0856V33.6667H7.3335L39.0002 1.16667V9.41897V13.5188V17.9961V22.5085V26.977V31.0856ZM32.0829 27.0561V17.5747L23.0266 27.0561H32.0829Z" fill="#FFDED5"/>
<path d="M39.2656 0.396038C38.9337 0.264633 38.5494 0.343476 38.3049 0.597525L6.74844 33.0195C6.50388 33.2736 6.43401 33.6415 6.56502 33.9656C6.70477 34.2897 7.0192 34.5 7.36856 34.5H38.925C39.4054 34.5 39.8333 34.1145 39.8333 33.6327V1.20199C39.8246 0.851575 39.5975 0.527443 39.2656 0.396038ZM38.0778 8.56942H35.4051C34.9248 8.56942 34.5317 8.96364 34.5317 9.44546C34.5317 9.92727 34.9248 10.3215 35.4051 10.3215H38.0778V12.6868H37.0471C36.5668 12.6868 36.1737 13.081 36.1737 13.5628C36.1737 14.0446 36.5668 14.4388 37.0471 14.4388H38.0778V17.1545H35.4051C34.9248 17.1545 34.5317 17.5488 34.5317 18.0306C34.5317 18.5124 34.9248 18.9066 35.4051 18.9066H38.0778V21.6223H37.0471C36.5668 21.6223 36.1737 22.0165 36.1737 22.4983C36.1737 22.9802 36.5668 23.3744 37.0471 23.3744H38.0778V26.0901H35.4051C34.9248 26.0901 34.5317 26.4843 34.5317 26.9661C34.5317 27.4479 34.9248 27.8421 35.4051 27.8421H38.0778V30.2074H37.0471C36.5668 30.2074 36.1737 30.6017 36.1737 31.0835C36.1737 31.5653 36.5668 31.9595 37.0471 31.9595H38.0778V32.7479H9.43855L38.0778 3.35703V8.56942Z" fill="#4C241D"/>
<path d="M22.405 27.3095C22.5452 27.6221 22.8607 27.8333 23.2112 27.8333H32.2642C32.7462 27.8333 33.1668 27.4447 33.1668 26.9715V17.846C33.1668 17.4996 32.9302 17.187 32.6059 17.0602C32.2729 16.9335 31.8873 17.0095 31.6419 17.263L22.5802 26.3885C22.3349 26.6335 22.2647 27.0053 22.405 27.3095ZM31.4141 19.9584V26.1434H25.2619L31.4141 19.9584Z" fill="#4C241D"/>
<path d="M11.3792 17.592C11.7728 17.592 12.0918 17.2729 12.0918 16.8793C12.0918 16.4857 11.7728 16.1667 11.3792 16.1667C10.9856 16.1667 10.6665 16.4857 10.6665 16.8793C10.6665 17.2729 10.9856 17.592 11.3792 17.592Z" fill="#4C241D"/>
</svg>
