<svg width="48" height="46" viewBox="0 0 48 46" fill="none" xmlns="http://www.w3.org/2000/svg">
<path d="M25.6434 39.0232C34.2591 39.0232 41.2434 32.0389 41.2434 23.4232C41.2434 14.8076 34.2591 7.82324 25.6434 7.82324C17.0278 7.82324 10.0435 14.8076 10.0435 23.4232C10.0435 32.0389 17.0278 39.0232 25.6434 39.0232Z" fill="#E6E5E6"/>
<path d="M39.1301 4.19682C38.6883 4.19682 38.3301 3.83862 38.3301 3.39682V1.79682C38.3301 1.35503 38.6883 0.996826 39.1301 0.996826C39.5719 0.996826 39.9301 1.35503 39.9301 1.79682V3.39682C39.9301 3.83862 39.5719 4.19682 39.1301 4.19682Z" fill="#4C241D"/>
<path d="M39.1301 8.99687C38.6883 8.99687 38.3301 8.63867 38.3301 8.19687V6.59687C38.3301 6.15507 38.6883 5.79688 39.1301 5.79688C39.5719 5.79688 39.9301 6.15507 39.9301 6.59687V8.19687C39.9301 8.63867 39.5719 8.99687 39.1301 8.99687Z" fill="#4C241D"/>
<path d="M37.5304 5.79677H35.9304C35.4886 5.79677 35.1304 5.43857 35.1304 4.99678C35.1304 4.55498 35.4886 4.19678 35.9304 4.19678H37.5304C37.9722 4.19678 38.3304 4.55498 38.3304 4.99678C38.3304 5.43857 37.9722 5.79677 37.5304 5.79677Z" fill="#4C241D"/>
<path d="M42.3302 5.79677H40.7302C40.2884 5.79677 39.9302 5.43857 39.9302 4.99678C39.9302 4.55498 40.2884 4.19678 40.7302 4.19678H42.3302C42.772 4.19678 43.1302 4.55498 43.1302 4.99678C43.1302 5.43857 42.772 5.79677 42.3302 5.79677Z" fill="#4C241D"/>
<path d="M13.3481 13.4843L23.8423 12.6771L30.3303 6.7019V44.1597H13.2915C11.9885 44.1597 10.7039 43.8417 9.5637 43.2109C5.3815 40.8973 -3.56851 34.5755 5.7769 26.7231C7.9017 24.9377 9.7671 22.8565 11.1585 20.4553C12.4997 18.1407 13.3481 16.1183 13.3481 13.4843Z" fill="#BF7E68"/>
<path d="M30.3303 44.9599H13.2917C11.8401 44.9599 10.4171 44.5975 9.17686 43.9111C6.27646 42.3069 1.34526 38.9337 0.901863 34.3697C0.628463 31.5505 2.09526 28.7717 5.26246 26.1107C7.45306 24.2701 9.20426 22.2325 10.4665 20.0541C11.7521 17.8365 12.5485 15.9639 12.5485 13.4845C12.5485 13.0665 12.8703 12.7189 13.2871 12.6869L23.5047 11.9009L29.7887 6.11327C30.0227 5.89727 30.3621 5.84147 30.6515 5.96867C30.9425 6.09647 31.1305 6.38387 31.1305 6.70147V44.1597C31.1303 44.6017 30.7721 44.9599 30.3303 44.9599ZM14.1267 14.2271C13.9807 16.7009 13.1063 18.6893 11.8505 20.8563C10.4951 23.1953 8.62466 25.3755 6.29106 27.3355C3.55206 29.6371 2.27466 31.9515 2.49426 34.2151C2.86646 38.0499 7.32586 41.0585 9.95086 42.5109C10.9551 43.0663 12.1103 43.3597 13.2915 43.3597H29.5301V8.52587L24.3841 13.2653C24.2521 13.3871 24.0829 13.4611 23.9037 13.4747L14.1267 14.2271Z" fill="#4C241D"/>
<path d="M44.3884 13.4206C44.8607 13.4206 45.2436 13.0377 45.2436 12.5654C45.2436 12.0931 44.8607 11.7102 44.3884 11.7102C43.9161 11.7102 43.5332 12.0931 43.5332 12.5654C43.5332 13.0377 43.9161 13.4206 44.3884 13.4206Z" fill="#4C241D"/>
<path d="M13.4923 13.4233L13.3691 4.99695C13.3691 4.99695 18.5289 6.98715 19.1087 12.9577L13.4923 13.4233Z" fill="#E7D1C4"/>
<path d="M13.4923 14.2235C13.2943 14.2235 13.1025 14.1501 12.9547 14.0161C12.7907 13.8673 12.6957 13.6567 12.6923 13.4353L12.5689 5.0087C12.5649 4.7431 12.6935 4.4927 12.9115 4.3407C13.1299 4.1891 13.4099 4.1551 13.6569 4.2505C13.8865 4.3391 19.2843 6.4919 19.9049 12.8805C19.9257 13.0937 19.8599 13.3063 19.7229 13.4703C19.5857 13.6347 19.3885 13.7375 19.1749 13.7551L13.5585 14.2207C13.5365 14.2227 13.5143 14.2235 13.4923 14.2235ZM14.1889 6.3383L14.2799 12.5555L18.2003 12.2305C17.6077 8.9961 15.5081 7.1825 14.1889 6.3383Z" fill="#4C241D"/>
<path d="M13.4454 24.7727C14.2425 24.7727 14.8888 24.1264 14.8888 23.3293C14.8888 22.5321 14.2425 21.8859 13.4454 21.8859C12.6482 21.8859 12.002 22.5321 12.002 23.3293C12.002 24.1264 12.6482 24.7727 13.4454 24.7727Z" fill="#4C241D"/>
<path d="M13.4452 30.6039C13.4452 32.3257 11.1188 35.7999 8.24922 35.7999C5.37962 35.7999 3.05322 32.3257 3.05322 30.6039C3.05322 28.8821 5.37962 27.4863 8.24922 27.4863C11.1188 27.4863 13.4452 28.8819 13.4452 30.6039Z" fill="#B5A19C"/>
<path d="M8.24942 36.5998C4.84542 36.5998 2.25342 32.6038 2.25342 30.6038C2.25342 28.407 4.88742 26.6862 8.24942 26.6862C11.6114 26.6862 14.2454 28.407 14.2454 30.6038C14.2454 32.6038 11.6532 36.5998 8.24942 36.5998ZM8.24942 28.2862C5.65882 28.2862 3.85342 29.5076 3.85342 30.6038C3.85342 31.8428 5.80262 34.9998 8.24942 34.9998C10.6962 34.9998 12.6454 31.8428 12.6454 30.6038C12.6454 29.5076 10.84 28.2862 8.24942 28.2862Z" fill="#4C241D"/>
<path d="M39.5963 23.2102C37.9073 21.4368 35.5739 20.3398 32.9967 20.3398C30.4193 20.3398 28.0861 21.4368 26.3971 23.2102L18.3301 17.54V30.2032C18.3301 37.9352 24.5981 44.2032 32.3301 44.2032C40.0621 44.2032 46.3301 37.9352 46.3301 30.2032V17.54L39.5963 23.2102Z" fill="#EDEBDC"/>
<path d="M32.3303 45.0032C24.1693 45.0032 17.5303 38.3642 17.5303 30.2032V17.54C17.5303 17.2416 17.6967 16.9678 17.9615 16.8302C18.2263 16.6924 18.5455 16.7138 18.7905 16.8852L26.3123 22.1724C28.1611 20.4696 30.5099 19.54 32.9971 19.54C35.4635 19.54 37.7939 20.4544 39.6365 22.131L45.8151 16.9278C46.0527 16.7278 46.3859 16.684 46.6679 16.8146C46.9499 16.9458 47.1303 17.2286 47.1303 17.54V30.2032C47.1303 38.364 40.4913 45.0032 32.3303 45.0032ZM19.1303 19.08V30.203C19.1303 37.4816 25.0517 43.403 32.3303 43.403C39.6089 43.403 45.5303 37.4816 45.5303 30.203V19.2592L40.1119 23.822C39.7885 24.0942 39.3091 24.0684 39.0173 23.7614C37.4067 22.0708 35.2689 21.1396 32.9969 21.1396C30.7247 21.1396 28.5867 22.0708 26.9765 23.7614C26.7043 24.049 26.2617 24.093 25.9371 23.8646L19.1303 19.08Z" fill="#4C241D"/>
<path d="M36.5304 31.6032C37.3036 31.6032 37.9304 30.9764 37.9304 30.2032C37.9304 29.43 37.3036 28.8032 36.5304 28.8032C35.7572 28.8032 35.1304 29.43 35.1304 30.2032C35.1304 30.9764 35.7572 31.6032 36.5304 31.6032Z" fill="#4C241D"/>
<path d="M34.5704 34.4033C34.5704 35.0689 33.5675 37.2033 32.3303 37.2033C31.0931 37.2033 30.0903 35.0689 30.0903 34.4033C30.0903 33.7377 31.0931 33.1979 32.3303 33.1979C33.5673 33.1979 34.5704 33.7375 34.5704 34.4033Z" fill="#FFDED5"/>
<path d="M32.3303 38.0032C30.4845 38.0032 29.2905 35.3286 29.2905 34.4032C29.2905 33.2598 30.5975 32.3978 32.3303 32.3978C34.0631 32.3978 35.3701 33.26 35.3701 34.4032C35.3701 35.3286 34.1759 38.0032 32.3303 38.0032ZM32.3303 33.9976C31.4541 33.9976 30.9467 34.3148 30.8827 34.4468C30.9085 34.8624 31.7249 36.403 32.3303 36.403C32.9233 36.403 33.7185 34.9252 33.7681 34.43C33.6725 34.2898 33.1713 33.9976 32.3303 33.9976ZM34.5701 34.4032H34.5779H34.5701Z" fill="#4C241D"/>
<path d="M28.1305 31.6032C28.9037 31.6032 29.5305 30.9764 29.5305 30.2032C29.5305 29.43 28.9037 28.8032 28.1305 28.8032C27.3573 28.8032 26.7305 29.43 26.7305 30.2032C26.7305 30.9764 27.3573 31.6032 28.1305 31.6032Z" fill="#4C241D"/>
<path d="M45.5392 33.8031H42.1306C41.6888 33.8031 41.3306 33.4449 41.3306 33.0031C41.3306 32.5613 41.6888 32.2031 42.1306 32.2031H45.5392C45.981 32.2031 46.3392 32.5613 46.3392 33.0031C46.3392 33.4449 45.981 33.8031 45.5392 33.8031Z" fill="#4C241D"/>
<path d="M44.9303 36.2378H39.6955C39.2537 36.2378 38.8955 35.8796 38.8955 35.4378C38.8955 34.996 39.2537 34.6378 39.6955 34.6378H44.9303C45.3721 34.6378 45.7303 34.996 45.7303 35.4378C45.7303 35.8796 45.3721 36.2378 44.9303 36.2378Z" fill="#4C241D"/>
<path d="M22.5304 33.8031H19.1218C18.68 33.8031 18.3218 33.4449 18.3218 33.0031C18.3218 32.5613 18.68 32.2031 19.1218 32.2031H22.5304C22.9722 32.2031 23.3304 32.5613 23.3304 33.0031C23.3304 33.4449 22.9722 33.8031 22.5304 33.8031Z" fill="#4C241D"/>
<path d="M24.965 36.2378H19.7302C19.2884 36.2378 18.9302 35.8796 18.9302 35.4378C18.9302 34.996 19.2884 34.6378 19.7302 34.6378H24.965C25.4068 34.6378 25.765 34.996 25.765 35.4378C25.765 35.8796 25.4068 36.2378 24.965 36.2378Z" fill="#4C241D"/>
</svg>
