<svg width="48" height="46" viewBox="0 0 48 46" fill="none" xmlns="http://www.w3.org/2000/svg">
<path d="M26.6434 39.5235C35.2591 39.5235 42.2434 32.5391 42.2434 23.9235C42.2434 15.3078 35.2591 8.32349 26.6434 8.32349C18.0278 8.32349 11.0435 15.3078 11.0435 23.9235C11.0435 32.5391 18.0278 39.5235 26.6434 39.5235Z" fill="#EAEAEA"/>
<path d="M40.0002 7.2C39.5584 7.2 39.2002 6.8418 39.2002 6.4V4.8C39.2002 4.3582 39.5584 4 40.0002 4C40.442 4 40.8002 4.3582 40.8002 4.8V6.4C40.8002 6.8418 40.442 7.2 40.0002 7.2Z" fill="#4C241D"/>
<path d="M40.0002 12C39.5584 12 39.2002 11.6418 39.2002 11.2V9.60005C39.2002 9.15825 39.5584 8.80005 40.0002 8.80005C40.442 8.80005 40.8002 9.15825 40.8002 9.60005V11.2C40.8002 11.6418 40.442 12 40.0002 12Z" fill="#4C241D"/>
<path d="M38.4 8.79995H36.8C36.3582 8.79995 36 8.44175 36 7.99995C36 7.55815 36.3582 7.19995 36.8 7.19995H38.4C38.8418 7.19995 39.2 7.55815 39.2 7.99995C39.2 8.44175 38.8418 8.79995 38.4 8.79995Z" fill="#4C241D"/>
<path d="M43.1998 8.79995H41.5998C41.158 8.79995 40.7998 8.44175 40.7998 7.99995C40.7998 7.55815 41.158 7.19995 41.5998 7.19995H43.1998C43.6416 7.19995 43.9998 7.55815 43.9998 7.99995C43.9998 8.44175 43.6416 8.79995 43.1998 8.79995Z" fill="#4C241D"/>
<path d="M45.258 16.4238C45.7303 16.4238 46.1132 16.0409 46.1132 15.5686C46.1132 15.0963 45.7303 14.7134 45.258 14.7134C44.7857 14.7134 44.4028 15.0963 44.4028 15.5686C44.4028 16.0409 44.7857 16.4238 45.258 16.4238Z" fill="#4C241D"/>
<path d="M4.17742 12.3548C2.97707 12.3548 2 11.3778 2 10.1774C2 8.97707 2.97707 8 4.17742 8C5.37776 8 6.35484 8.97707 6.35484 10.1774C6.35484 11.3778 5.37776 12.3548 4.17742 12.3548ZM4.17742 9.45161C3.77695 9.45161 3.45161 9.77695 3.45161 10.1774C3.45161 10.5779 3.77695 10.9032 4.17742 10.9032C4.57789 10.9032 4.90323 10.5779 4.90323 10.1774C4.90323 9.77695 4.57789 9.45161 4.17742 9.45161Z" fill="#4C241D"/>
<path d="M11.2099 7.30645C9.6087 7.30645 8.30664 6.00439 8.30664 4.40323C8.30664 2.80206 9.6087 1.5 11.2099 1.5C12.811 1.5 14.1131 2.80206 14.1131 4.40323C14.1131 6.00439 12.811 7.30645 11.2099 7.30645ZM11.2099 2.95161C10.4093 2.95161 9.75825 3.60264 9.75825 4.40323C9.75825 5.20381 10.4093 5.85484 11.2099 5.85484C12.0105 5.85484 12.6615 5.20381 12.6615 4.40323C12.6615 3.60264 12.0105 2.95161 11.2099 2.95161Z" fill="#4C241D"/>
<path d="M13 19H38V21H13V19Z" fill="#4C241D"/>
<path d="M22 24L22 34L20 34L20 24L22 24Z" fill="#4C241D"/>
<path d="M23.8317 26.5875C23.3692 27.0499 22.6194 27.05 22.157 26.5875L20.4823 24.9129C20.0199 24.4505 20.0199 23.7006 20.4824 23.2382C20.9448 22.7758 21.6946 22.7758 22.157 23.2382L23.8317 24.9129C24.2941 25.3753 24.2941 26.1251 23.8317 26.5875Z" fill="#4C241D"/>
<path d="M21.0284 24.9129L19.3538 26.5876C18.8914 27.05 18.1415 27.05 17.6791 26.5876C17.2167 26.1252 17.2167 25.3753 17.6791 24.9129L19.3538 23.2383C19.8162 22.7759 20.566 22.7759 21.0284 23.2383C21.4908 23.7007 21.4908 24.4505 21.0284 24.9129Z" fill="#4C241D"/>
<path d="M17.6791 30.6393C18.1415 30.1769 18.8913 30.1769 19.3537 30.6393L21.0284 32.3139C21.4908 32.7763 21.4908 33.5262 21.0284 33.9886C20.566 34.451 19.8161 34.451 19.3537 33.9886L17.6791 32.3139C17.2167 31.8515 17.2167 31.1017 17.6791 30.6393Z" fill="#4C241D"/>
<path d="M20.4823 32.3139L22.157 30.6392C22.6194 30.1768 23.3692 30.1768 23.8316 30.6392C24.294 31.1017 24.294 31.8515 23.8316 32.3139L22.157 33.9885C21.6946 34.4509 20.9447 34.451 20.4823 33.9885C20.0199 33.5261 20.0199 32.7763 20.4823 32.3139Z" fill="#4C241D"/>
<path d="M5.30824 18.3333H39V16H5L5.30824 18.3333Z" fill="#FFDED5"/>
<path d="M5.92316 23H10.9908V20.6667H5.61649L5.92316 23Z" fill="#FFDED5"/>
<path d="M13 42H38V44H13V42Z" fill="#FFDED5"/>
<path d="M5.30824 39.3333H39V37H5L5.30824 39.3333Z" fill="#FFDED5"/>
<path d="M5.92316 44H10.9908V41.6667H5.61649L5.92316 44Z" fill="#FFDED5"/>
<path d="M5.30824 17H39V15H5L5.30824 17Z" fill="#4C241D"/>
<path d="M5.92316 21H10.9908V19H5.61649L5.92316 21Z" fill="#4C241D"/>
<path d="M13 40H38V42H13V40Z" fill="#4C241D"/>
<path d="M5.30824 38H39V36H5L5.30824 38Z" fill="#4C241D"/>
<path d="M5.92316 42H10.9908V40H5.61649L5.92316 42Z" fill="#4C241D"/>
</svg>
