<svg width="52" height="49" viewBox="0 0 52 49" fill="none" xmlns="http://www.w3.org/2000/svg">
<path d="M34.6 34.8001C43.2156 34.8001 50.2 27.8157 50.2 19.2001C50.2 10.5845 43.2156 3.6001 34.6 3.6001C25.9844 3.6001 19 10.5845 19 19.2001C19 27.8157 25.9844 34.8001 34.6 34.8001Z" fill="#E6E5E6"/>
<path d="M6.8 10.2C6.3582 10.2 6 9.8418 6 9.4V7.8C6 7.3582 6.3582 7 6.8 7C7.2418 7 7.6 7.3582 7.6 7.8V9.4C7.6 9.8418 7.2418 10.2 6.8 10.2Z" fill="#4C241D"/>
<path d="M6.8 15.0001C6.3582 15.0001 6 14.6419 6 14.2001V12.6001C6 12.1582 6.3582 11.8 6.8 11.8C7.2418 11.8 7.6 12.1582 7.6 12.6001V14.2001C7.6 14.6419 7.2418 15.0001 6.8 15.0001Z" fill="#4C241D"/>
<path d="M5.1998 11.7999H3.5998C3.158 11.7999 2.7998 11.4417 2.7998 10.9999C2.7998 10.5582 3.158 10.2 3.5998 10.2H5.1998C5.6416 10.2 5.9998 10.5582 5.9998 10.9999C5.9998 11.4417 5.6416 11.7999 5.1998 11.7999Z" fill="#4C241D"/>
<path d="M9.99961 11.7999H8.39961C7.95781 11.7999 7.59961 11.4417 7.59961 10.9999C7.59961 10.5582 7.95781 10.2 8.39961 10.2H9.99961C10.4414 10.2 10.7996 10.5582 10.7996 10.9999C10.7996 11.4417 10.4414 11.7999 9.99961 11.7999Z" fill="#4C241D"/>
<path d="M33.8552 11.7104C34.3275 11.7104 34.7104 11.3275 34.7104 10.8552C34.7104 10.3829 34.3275 10 33.8552 10C33.3829 10 33 10.3829 33 10.8552C33 11.3275 33.3829 11.7104 33.8552 11.7104Z" fill="#4C241D"/>
<path d="M39.8599 47H5.49985C4.75985 47 4.06152 46.675 3.58485 46.1067C3.10819 45.54 2.90985 44.795 3.03819 44.065L7.44985 19.065C7.65985 17.8683 8.69652 17 9.91152 17H35.4482C36.6632 17 37.6999 17.8683 37.9099 19.065L42.3215 44.065C42.4499 44.795 42.2515 45.54 41.7749 46.1067C41.2982 46.675 40.5999 47 39.8599 47Z" fill="#FFDED5"/>
<path d="M39.8599 47H5.49985C4.75985 47 4.06152 46.675 3.58485 46.1067C3.10819 45.54 2.90985 44.795 3.03819 44.065L7.44985 19.065C7.65985 17.8683 8.69652 17 9.91152 17H35.4482C36.6632 17 37.6999 17.8683 37.9099 19.065L42.3215 44.065C42.4499 44.795 42.2515 45.54 41.7749 46.1067C41.2982 46.675 40.5999 47 39.8599 47ZM9.91152 18.6667C9.50652 18.6667 9.16152 18.9567 9.08985 19.355L4.67819 44.355C4.61985 44.6867 4.76819 44.925 4.86152 45.035C4.95485 45.1467 5.16152 45.3333 5.49985 45.3333H39.8599C40.1982 45.3333 40.4049 45.1467 40.4982 45.035C40.5915 44.925 40.7399 44.6867 40.6815 44.355L36.2699 19.355C36.1982 18.9567 35.8532 18.6667 35.4482 18.6667H9.91152Z" fill="#4C241D"/>
<path d="M22.68 18.6667C19.4633 18.6667 16.8467 16.05 16.8467 12.8333C16.8467 9.61667 19.4633 7 22.68 7C25.8967 7 28.5133 9.61667 28.5133 12.8333C28.5133 16.05 25.8967 18.6667 22.68 18.6667ZM22.68 8.66667C20.3833 8.66667 18.5133 10.5367 18.5133 12.8333C18.5133 15.13 20.3833 17 22.68 17C24.9767 17 26.8467 15.13 26.8467 12.8333C26.8467 10.5367 24.9767 8.66667 22.68 8.66667Z" fill="#4C241D"/>
<path d="M13.513 38.6667C13.053 38.6667 12.6797 38.2934 12.6797 37.8334V26.1667C12.6797 25.7067 13.053 25.3334 13.513 25.3334C13.973 25.3334 14.3464 25.7067 14.3464 26.1667V37.8334C14.3464 38.2934 13.973 38.6667 13.513 38.6667Z" fill="#4C241D"/>
<path d="M28.5133 38.6667C26.2167 38.6667 24.3467 36.7984 24.3467 34.5V29.5C24.3467 27.2034 26.2167 25.3334 28.5133 25.3334C30.81 25.3334 32.68 27.2034 32.68 29.5C32.68 29.96 32.3067 30.3334 31.8467 30.3334C31.3867 30.3334 31.0133 29.96 31.0133 29.5C31.0133 28.1217 29.8917 27 28.5133 27C27.135 27 26.0133 28.1217 26.0133 29.5V34.5C26.0133 35.8784 27.135 37 28.5133 37C29.8917 37 31.0133 35.8784 31.0133 34.5V33.6667H28.5133C28.0533 33.6667 27.68 33.2934 27.68 32.8334C27.68 32.3734 28.0533 32 28.5133 32H31.8467C32.3067 32 32.68 32.3734 32.68 32.8334V34.5C32.68 36.7984 30.81 38.6667 28.5133 38.6667Z" fill="#4C241D"/>
<path d="M20.1797 38.77C19.9813 38.77 19.7847 38.7 19.6247 38.5583L12.958 32.6217C12.7814 32.4633 12.6797 32.2367 12.6797 31.9967C12.6797 31.7567 12.7847 31.53 12.9647 31.3733L19.6313 25.54C19.9763 25.2367 20.5013 25.27 20.808 25.6183C21.1113 25.965 21.0763 26.49 20.7297 26.795L14.773 32.005L20.7347 37.3167C21.078 37.6233 21.1097 38.1483 20.803 38.4933C20.6363 38.6767 20.4097 38.77 20.1797 38.77Z" fill="#4C241D"/>
</svg>
