<svg width="46" height="46" viewBox="0 0 46 46" fill="none" xmlns="http://www.w3.org/2000/svg">
<path d="M15.6767 37.0325C24.2923 37.0325 31.2767 30.0482 31.2767 21.4325C31.2767 12.8169 24.2923 5.83252 15.6767 5.83252C7.06102 5.83252 0.0766602 12.8169 0.0766602 21.4325C0.0766602 30.0482 7.06102 37.0325 15.6767 37.0325Z" fill="#E6E5E6"/>
<path d="M29.4094 28.5569C29.4094 25.3577 27.0138 22.4901 23.8189 22.3227C20.4117 22.1443 17.5931 24.8541 17.5931 28.2225V28.5569C17.5931 30.6645 16.4875 32.5637 14.7681 33.7827C12.9613 35.0635 11.8765 37.2859 12.2479 39.7489C12.6237 42.2415 14.5913 44.3347 17.0619 44.8355C18.1751 45.0611 19.2489 44.9869 20.2185 44.6791C22.3801 43.9929 24.6221 43.9929 26.7838 44.6791C27.7536 44.9869 28.8274 45.0613 29.9408 44.8355C32.4114 44.3347 34.3792 42.2415 34.7548 39.7489C35.126 37.2859 34.0414 35.0637 32.2346 33.7829C30.515 32.5637 29.4094 30.6645 29.4094 28.5569Z" fill="#FFDED5"/>
<path d="M18.3576 45.768C17.8768 45.768 17.3912 45.7184 16.903 45.6196C14.1218 45.056 11.882 42.6906 11.4566 39.868C11.0606 37.2388 12.152 34.657 14.3054 33.1302C15.8862 32.0094 16.793 30.3426 16.793 28.5572V28.2228C16.793 26.3646 17.5356 24.636 18.884 23.3564C20.2316 22.0774 22.0044 21.4236 23.8606 21.524C27.3614 21.7076 30.2094 24.8626 30.2094 28.5572C30.2094 30.3428 31.116 32.0096 32.6972 33.1302C34.8504 34.6572 35.9418 37.2388 35.5456 39.868C35.1202 42.6906 32.8804 45.0558 30.0996 45.6196C28.8856 45.8656 27.6878 45.8056 26.5418 45.4414C24.523 44.8012 22.4774 44.802 20.4602 45.4414C19.7748 45.659 19.0716 45.768 18.3576 45.768ZM23.499 23.1144C22.183 23.1144 20.9444 23.6066 19.9854 24.5168C18.9584 25.4914 18.3928 26.8074 18.3928 28.2226V28.557C18.3928 30.868 17.24 33.0106 15.2306 34.4356C13.5728 35.6106 12.733 37.6012 13.0384 39.6298C13.3658 41.8006 15.0852 43.6188 17.2204 44.0516C18.1646 44.2426 19.0918 44.1966 19.9758 43.9164C22.2816 43.1848 24.7192 43.184 27.025 43.9164C27.9094 44.1964 28.8364 44.2422 29.7816 44.0516C31.9164 43.6188 33.6358 41.8004 33.9632 39.6298C34.2686 37.6012 33.4288 35.6106 31.7714 34.4356C29.7616 33.0106 28.609 30.868 28.609 28.557C28.609 25.6996 26.441 23.2612 23.7766 23.1214C23.6838 23.1168 23.5912 23.1144 23.499 23.1144Z" fill="#4C241D"/>
<path d="M39.9753 32.6109C42.8186 32.6109 45.1235 30.3059 45.1235 27.4627C45.1235 24.6194 42.8186 22.3145 39.9753 22.3145C37.1321 22.3145 34.8271 24.6194 34.8271 27.4627C34.8271 30.3059 37.1321 32.6109 39.9753 32.6109Z" fill="#E7D1C4"/>
<path d="M39.9753 33.4111C36.6953 33.4111 34.0269 30.7427 34.0269 27.4627C34.0269 24.183 36.6953 21.5146 39.9753 21.5146C43.2549 21.5146 45.9233 24.183 45.9233 27.4627C45.9233 30.7427 43.2549 33.4111 39.9753 33.4111ZM39.9753 23.1144C37.5777 23.1144 35.6269 25.0649 35.6269 27.4625C35.6269 29.8601 37.5777 31.8109 39.9753 31.8109C42.3729 31.8109 44.3233 29.8601 44.3233 27.4625C44.3233 25.0649 42.3729 23.1144 39.9753 23.1144Z" fill="#4C241D"/>
<path d="M31.738 20.255C34.5813 20.255 36.8862 17.9501 36.8862 15.1068C36.8862 12.2635 34.5813 9.95862 31.738 9.95862C28.8948 9.95862 26.5898 12.2635 26.5898 15.1068C26.5898 17.9501 28.8948 20.255 31.738 20.255Z" fill="#E7D1C4"/>
<path d="M31.738 21.0548C28.458 21.0548 25.7896 18.3864 25.7896 15.1068C25.7896 11.8272 28.458 9.15881 31.738 9.15881C35.0176 9.15881 37.686 11.8272 37.686 15.1068C37.686 18.3864 35.0178 21.0548 31.738 21.0548ZM31.738 10.7588C29.3404 10.7588 27.3896 12.7092 27.3896 15.1068C27.3896 17.5044 29.3404 19.4548 31.738 19.4548C34.1356 19.4548 36.086 17.5044 36.086 15.1068C36.086 12.7092 34.1358 10.7588 31.738 10.7588Z" fill="#4C241D"/>
<path d="M17.3225 20.255C20.1658 20.255 22.4707 17.9501 22.4707 15.1068C22.4707 12.2635 20.1658 9.95862 17.3225 9.95862C14.4792 9.95862 12.1743 12.2635 12.1743 15.1068C12.1743 17.9501 14.4792 20.255 17.3225 20.255Z" fill="#E7D1C4"/>
<path d="M17.3229 21.0548C14.0429 21.0548 11.3745 18.3864 11.3745 15.1068C11.3745 11.8272 14.0429 9.15881 17.3229 9.15881C20.6025 9.15881 23.2709 11.8272 23.2709 15.1068C23.2709 18.3864 20.6027 21.0548 17.3229 21.0548ZM17.3229 10.7588C14.9253 10.7588 12.9745 12.7092 12.9745 15.1068C12.9745 17.5044 14.9253 19.4548 17.3229 19.4548C19.7205 19.4548 21.6709 17.5044 21.6709 15.1068C21.6709 12.7092 19.7205 10.7588 17.3229 10.7588Z" fill="#4C241D"/>
<path d="M7.02662 32.6109C9.86989 32.6109 12.1748 30.3059 12.1748 27.4627C12.1748 24.6194 9.86989 22.3145 7.02662 22.3145C4.18335 22.3145 1.87842 24.6194 1.87842 27.4627C1.87842 30.3059 4.18335 32.6109 7.02662 32.6109Z" fill="#E7D1C4"/>
<path d="M7.02661 33.4111C3.74701 33.4111 1.07861 30.7427 1.07861 27.4627C1.07861 24.183 3.74701 21.5146 7.02661 21.5146C10.3062 21.5146 12.9746 24.183 12.9746 27.4627C12.9746 30.7427 10.3062 33.4111 7.02661 33.4111ZM7.02661 23.1144C4.62901 23.1144 2.67861 25.0649 2.67861 27.4625C2.67861 29.8601 4.62901 31.8109 7.02661 31.8109C9.42421 31.8109 11.3746 29.8601 11.3746 27.4625C11.3746 25.0649 9.42421 23.1144 7.02661 23.1144Z" fill="#4C241D"/>
<path d="M4.87666 3.43229C4.43486 3.43229 4.07666 3.0741 4.07666 2.6323V1.0323C4.07666 0.590499 4.43486 0.2323 4.87666 0.2323C5.31846 0.2323 5.67666 0.590499 5.67666 1.0323V2.6323C5.67666 3.0741 5.31846 3.43229 4.87666 3.43229Z" fill="#4C241D"/>
<path d="M4.87666 8.23235C4.43486 8.23235 4.07666 7.87415 4.07666 7.43235V5.83235C4.07666 5.39055 4.43486 5.03235 4.87666 5.03235C5.31846 5.03235 5.67666 5.39055 5.67666 5.83235V7.43235C5.67666 7.87415 5.31846 8.23235 4.87666 8.23235Z" fill="#4C241D"/>
<path d="M3.27646 5.03225H1.67646C1.23466 5.03225 0.876465 4.67405 0.876465 4.23225C0.876465 3.79045 1.23466 3.43225 1.67646 3.43225H3.27646C3.71826 3.43225 4.07646 3.79045 4.07646 4.23225C4.07646 4.67405 3.71826 5.03225 3.27646 5.03225Z" fill="#4C241D"/>
<path d="M8.07627 5.03225H6.47627C6.03447 5.03225 5.67627 4.67405 5.67627 4.23225C5.67627 3.79045 6.03447 3.43225 6.47627 3.43225H8.07627C8.51807 3.43225 8.87627 3.79045 8.87627 4.23225C8.87627 4.67405 8.51807 5.03225 8.07627 5.03225Z" fill="#4C241D"/>
<path d="M14.4968 3.74091C14.9691 3.74091 15.352 3.35803 15.352 2.88572C15.352 2.4134 14.9691 2.03052 14.4968 2.03052C14.0245 2.03052 13.6416 2.4134 13.6416 2.88572C13.6416 3.35803 14.0245 3.74091 14.4968 3.74091Z" fill="#4C241D"/>
<path d="M26.011 33.795H25.611V33.395C25.611 32.2904 24.7155 31.395 23.6109 31.395C22.5063 31.395 21.6109 32.2904 21.6109 33.395V33.795H21.2109C20.1063 33.795 19.2109 34.6904 19.2109 35.795C19.2109 36.8996 20.1063 37.795 21.2109 37.795H21.6109V38.195C21.6109 39.2996 22.5063 40.195 23.6109 40.195C24.7155 40.195 25.611 39.2996 25.611 38.195V37.795H26.011C27.1156 37.795 28.011 36.8996 28.011 35.795C28.011 34.6904 27.1154 33.795 26.011 33.795Z" fill="#C1DBDC"/>
<path d="M23.6111 40.995C22.1943 40.995 21.0201 39.9372 20.8361 38.57C19.4689 38.386 18.4111 37.2118 18.4111 35.795C18.4111 34.3782 19.4689 33.204 20.8361 33.02C21.0201 31.6528 22.1943 30.595 23.6111 30.595C25.0279 30.595 26.2021 31.6528 26.3861 33.02C27.7533 33.204 28.8111 34.3782 28.8111 35.795C28.8111 37.2118 27.7533 38.386 26.3861 38.57C26.2021 39.937 25.0279 40.995 23.6111 40.995ZM21.2111 34.595C20.5493 34.595 20.0111 35.1332 20.0111 35.795C20.0111 36.4568 20.5493 36.995 21.2111 36.995H21.6111C22.0529 36.995 22.4111 37.3532 22.4111 37.795V38.195C22.4111 38.8568 22.9493 39.395 23.6111 39.395C24.2729 39.395 24.8111 38.8568 24.8111 38.195V37.795C24.8111 37.3532 25.1693 36.995 25.6111 36.995H26.0111C26.6729 36.995 27.2111 36.4568 27.2111 35.795C27.2111 35.1332 26.6729 34.595 26.0111 34.595H25.6111C25.1693 34.595 24.8111 34.2368 24.8111 33.795V33.395C24.8111 32.7332 24.2729 32.195 23.6111 32.195C22.9493 32.195 22.4111 32.7332 22.4111 33.395V33.795C22.4111 34.2368 22.0529 34.595 21.6111 34.595H21.2111Z" fill="#4C241D"/>
</svg>
