<svg width="50" height="50" viewBox="0 0 50 50" fill="none" xmlns="http://www.w3.org/2000/svg">
<circle cx="25" cy="25" r="25" fill="white"/>
<path d="M32.9688 14.5117C29.0917 14.5117 25.9375 17.6659 25.9375 21.543C25.9375 23.3969 26.6528 25.1463 27.9516 26.4689C29.2475 27.7885 30.9785 28.5355 32.826 28.5724L32.8796 28.5738C33.5273 28.5933 34.0647 28.0797 34.0816 27.4328C34.0985 26.7858 33.5876 26.2476 32.9406 26.2308L32.8758 26.2291C30.3423 26.1801 28.2812 24.0778 28.2812 21.543C28.2812 18.9583 30.3841 16.8555 32.9688 16.8555C35.5534 16.8555 37.6562 18.9583 37.6562 21.543C37.6562 24.7714 36.8884 27.7504 35.374 30.3974C34.2421 32.3758 33.0911 33.4208 33.0696 33.4401C32.5869 33.8686 32.5415 34.6074 32.9689 35.0918C33.2005 35.3542 33.5236 35.4883 33.8481 35.4883C34.1236 35.4883 34.4002 35.3917 34.623 35.1951C34.6796 35.1451 36.0261 33.9442 37.3514 31.6599C38.5598 29.5775 40 26.1318 40 21.543C40 17.6659 36.8458 14.5117 32.9688 14.5117Z" fill="#619B3F"/>
<path d="M17.0312 14.5117C13.1542 14.5117 10 17.6659 10 21.543C10 23.3969 10.7153 25.1463 12.0141 26.469C13.31 27.7886 15.041 28.5355 16.8885 28.5725L16.9421 28.5739C17.5884 28.5934 18.1273 28.0799 18.1441 27.4329C18.161 26.7859 17.6501 26.2478 17.0031 26.2309L16.9383 26.2292C14.4048 26.1801 12.3438 24.0778 12.3438 21.543C12.3438 18.9583 14.4466 16.8555 17.0312 16.8555C19.6159 16.8555 21.7188 18.9583 21.7188 21.543C21.7188 24.7714 20.9509 27.7504 19.4365 30.3973C18.3046 32.3757 17.1536 33.4207 17.1321 33.4401C16.6493 33.8686 16.604 34.6073 17.0314 35.0917C17.263 35.3542 17.5861 35.4883 17.9106 35.4883C18.1861 35.4883 18.4627 35.3917 18.6855 35.1951C18.7421 35.1451 20.0886 33.9442 21.414 31.6599C22.6223 29.5775 24.0625 26.1319 24.0625 21.543C24.0625 17.6659 20.9083 14.5117 17.0312 14.5117Z" fill="#619B3F"/>
</svg>
