<svg width="53" height="52" viewBox="0 0 53 52" fill="none" xmlns="http://www.w3.org/2000/svg">
<path d="M19.333 41.3334C26.5127 41.3334 32.333 35.5132 32.333 28.3334C32.333 21.1537 26.5127 15.3335 19.333 15.3335C12.1533 15.3335 6.33301 21.1537 6.33301 28.3334C6.33301 35.5132 12.1533 41.3334 19.333 41.3334Z" fill="#EAEAEA"/>
<path d="M37.6662 9.33334C37.298 9.33334 36.9995 9.03484 36.9995 8.66667V7.33334C36.9995 6.96517 37.298 6.66667 37.6662 6.66667C38.0344 6.66667 38.3329 6.96517 38.3329 7.33334V8.66667C38.3329 9.03484 38.0344 9.33334 37.6662 9.33334Z" fill="#4C241D"/>
<path d="M37.6662 13.3334C37.298 13.3334 36.9995 13.0349 36.9995 12.6667V11.3334C36.9995 10.9652 37.298 10.6667 37.6662 10.6667C38.0344 10.6667 38.3329 10.9652 38.3329 11.3334V12.6667C38.3329 13.0349 38.0344 13.3334 37.6662 13.3334Z" fill="#4C241D"/>
<path d="M36.333 10.6667H34.9997C34.6315 10.6667 34.333 10.3682 34.333 10C34.333 9.63186 34.6315 9.33336 34.9997 9.33336H36.333C36.7012 9.33336 36.9997 9.63186 36.9997 10C36.9997 10.3682 36.7012 10.6667 36.333 10.6667Z" fill="#4C241D"/>
<path d="M40.333 10.6667H38.9997C38.6315 10.6667 38.333 10.3682 38.333 10C38.333 9.63186 38.6315 9.33336 38.9997 9.33336H40.333C40.7012 9.33336 40.9997 9.63186 40.9997 10C40.9997 10.3682 40.7012 10.6667 40.333 10.6667Z" fill="#4C241D"/>
<path d="M42.9539 16.6645C43.3475 16.6645 43.6665 16.3454 43.6665 15.9518C43.6665 15.5582 43.3475 15.2391 42.9539 15.2391C42.5603 15.2391 42.2412 15.5582 42.2412 15.9518C42.2412 16.3454 42.5603 16.6645 42.9539 16.6645Z" fill="#4C241D"/>
<path d="M44.2204 29.7044H42.0698V30.7797H44.2204C44.517 30.7797 44.758 31.0212 44.758 31.3173C44.758 31.6134 44.517 31.8549 44.2204 31.8549H42.0698V32.9302H43.6113C44.0388 32.9394 44.2782 32.9258 44.7052 32.848C45.3568 32.6404 45.8333 32.0366 45.8333 31.3173C45.8333 30.4282 45.1095 29.7044 44.2204 29.7044Z" fill="#4C241D"/>
<path d="M38 49V39H36V49M38 49H36M38 49H52V51H23V49H36" stroke="#4C241D"/>
<path d="M33.4678 27.0162H34.543V28.0915H33.4678V27.0162Z" fill="#4C241D"/>
<path d="M25.9409 27.5537H27.0162V28.629H25.9409V27.5537Z" fill="#4C241D"/>
<path fill-rule="evenodd" clip-rule="evenodd" d="M18.4139 30.7796H42.0832V29.7043C37.9882 29.834 22.7149 29.7043 22.7149 29.7043V23.2527H26.4784V22.1774H22.7149V20.0269H25.4031C26.8853 20.0269 28.0913 18.8209 28.0913 17.3387V16.8011H22.7149V12.5H19.4891V16.8011H14.1128V17.3387C14.1128 18.8209 15.3188 20.0269 16.801 20.0269H19.4891V24.328H15.7257V25.4032H19.4891V29.7043H18.4139C17.5247 29.7043 16.801 30.4281 16.801 31.3172C16.801 32.0365 17.2774 32.6403 17.929 32.8474L19.0229 32.9301H42.0832V31.8548H18.4139C18.1172 31.8548 17.8762 31.6133 17.8762 31.3172C17.8762 31.0211 18.1172 30.7796 18.4139 30.7796ZM21.6397 23.2527V22.1774H20.5644V23.2527H21.6397ZM20.5644 20.0269V21.1021H21.6397V20.0269H20.5644ZM21.6397 25.4032V24.328H20.5644V25.4032H21.6397ZM21.6397 27.5538V26.4785H20.5644V27.5538H21.6397ZM21.6397 13.5753H20.5644V14.6505H21.6397V13.5753ZM21.6397 15.7258H20.5644V16.8011H21.6397V15.7258ZM15.2799 17.8763C15.502 18.5022 16.0998 18.9516 16.801 18.9516H25.4031C26.1043 18.9516 26.7021 18.5022 26.9241 17.8763H15.2799ZM21.6397 28.629H20.5644V29.7043H21.6397V28.629Z" fill="#4C241D"/>
<path d="M17.8763 44.2205C14.9117 44.2205 12.5 41.8088 12.5 38.8442C12.5 35.8796 14.9117 33.4678 17.8763 33.4678C20.8409 33.4678 23.2527 35.8796 23.2527 38.8442C23.2527 41.8088 20.8409 44.2205 17.8763 44.2205Z" fill="#F0BC5E"/>
<path d="M17.8762 42.0698C16.394 42.0698 15.188 41.1053 15.188 39.9193C15.188 38.7332 16.394 37.7688 17.8762 37.7688C19.3583 37.7688 20.5643 38.7332 20.5643 39.9193C20.5643 41.1053 19.3583 42.0698 17.8762 42.0698ZM17.8762 38.844C17.002 38.844 16.2633 39.3365 16.2633 39.9193C16.2633 40.5021 17.002 40.9946 17.8762 40.9946C18.7503 40.9946 19.4891 40.5021 19.4891 39.9193C19.4891 39.3365 18.7503 38.844 17.8762 38.844Z" fill="#4C241D"/>
<path d="M18.4141 36.1559C18.4141 36.4528 18.1734 36.6936 17.8765 36.6936C17.5796 36.6936 17.3389 36.4528 17.3389 36.1559C17.3389 35.859 17.5796 35.6183 17.8765 35.6183C18.1734 35.6183 18.4141 35.859 18.4141 36.1559Z" fill="#4C241D"/>
<path d="M16.2633 37.2312C16.2633 37.5281 16.0225 37.7688 15.7256 37.7688C15.4287 37.7688 15.188 37.5281 15.188 37.2312C15.188 36.9343 15.4287 36.6935 15.7256 36.6935C16.0225 36.6935 16.2633 36.9343 16.2633 37.2312Z" fill="#4C241D"/>
<path d="M20.5645 37.2312C20.5645 37.5281 20.3238 37.7688 20.0269 37.7688C19.73 37.7688 19.4893 37.5281 19.4893 37.2312C19.4893 36.9343 19.73 36.6935 20.0269 36.6935C20.3238 36.6935 20.5645 36.9343 20.5645 37.2312Z" fill="#4C241D"/>
</svg>
