<svg width="36" height="42" viewBox="0 0 36 42" fill="none" xmlns="http://www.w3.org/2000/svg">
<path d="M18.6411 27.3372C25.8208 27.3372 31.6411 21.5169 31.6411 14.3372C31.6411 7.15749 25.8208 1.33719 18.6411 1.33719C11.4614 1.33719 5.64111 7.15749 5.64111 14.3372C5.64111 21.5169 11.4614 27.3372 18.6411 27.3372Z" fill="#EAEAEA"/>
<path d="M29.6574 3.32966C29.6567 3.32966 29.6554 3.32966 29.6541 3.32966C29.2862 3.328 28.9894 3.02816 28.9907 2.65999L28.9966 1.32666C28.9979 0.959495 29.2961 0.662994 29.6632 0.662994H29.6659C30.0344 0.664661 30.3312 0.964495 30.3299 1.33266L30.3241 2.66599C30.3227 3.03299 30.0246 3.32966 29.6574 3.32966Z" fill="#4C241D"/>
<path d="M29.6379 7.32935C29.6365 7.32935 29.6359 7.32935 29.6345 7.32935C29.266 7.32735 28.9692 7.02752 28.9712 6.65935L28.9777 5.32602C28.9797 4.95886 29.2779 4.66269 29.6444 4.66269H29.6477C30.0162 4.66469 30.313 4.96452 30.311 5.33269L30.3045 6.66602C30.3025 7.03302 30.0044 7.32935 29.6379 7.32935Z" fill="#4C241D"/>
<path d="M28.3174 4.65641C28.3161 4.65641 28.3154 4.65641 28.3141 4.65641L26.9807 4.64991C26.6122 4.64791 26.3154 4.34808 26.3174 3.97991C26.3201 3.61141 26.5981 3.33541 26.9874 3.31657L28.3207 3.32307C28.6892 3.32507 28.986 3.62491 28.984 3.99308C28.982 4.36008 28.6839 4.65641 28.3174 4.65641Z" fill="#4C241D"/>
<path d="M32.3174 4.67559C32.316 4.67559 32.3154 4.67559 32.314 4.67559L30.9807 4.66909C30.6122 4.66709 30.3154 4.36725 30.3174 3.99909C30.3194 3.63092 30.6442 3.33542 30.9874 3.33575L32.3207 3.34225C32.6892 3.34425 32.986 3.64409 32.984 4.01225C32.982 4.37925 32.6839 4.67559 32.3174 4.67559Z" fill="#4C241D"/>
<path d="M0.974121 6.67061H25.6408V40.6706H0.974121V6.67061Z" fill="white"/>
<path d="M1.33301 17.6665H25.4997V40.9998H1.33301V17.6665Z" fill="#2D9CDB"/>
<path d="M1.33301 29.3332H25.4997V40.9998H1.33301V29.3332Z" fill="#D94343"/>
<path d="M25.641 41.3372H0.974284C0.605784 41.3372 0.307617 41.0387 0.307617 40.6706V6.67057C0.307617 6.30241 0.605784 6.00391 0.974284 6.00391H25.641C26.0095 6.00391 26.3076 6.30241 26.3076 6.67057V40.6706C26.3076 41.0387 26.0095 41.3372 25.641 41.3372ZM1.64095 40.0039H24.9743V7.33724H1.64095V40.0039Z" fill="#4C241D"/>
<path d="M9.64112 13.3373H4.30778C3.93928 13.3373 3.64111 13.0388 3.64111 12.6706C3.64111 12.3025 3.93928 12.004 4.30778 12.004H9.64112C10.0096 12.004 10.3078 12.3025 10.3078 12.6706C10.3078 13.0388 10.0096 13.3373 9.64112 13.3373Z" fill="#4C241D"/>
<path d="M11.6411 17.3374H4.30778C3.93928 17.3374 3.64111 17.0389 3.64111 16.6708C3.64111 16.3026 3.93928 16.0041 4.30778 16.0041H11.6411C12.0096 16.0041 12.3078 16.3026 12.3078 16.6708C12.3078 17.0389 12.0096 17.3374 11.6411 17.3374Z" fill="#4C241D"/>
<path d="M18.9744 21.3374H4.30778C3.93928 21.3374 3.64111 21.0389 3.64111 20.6708C3.64111 20.3026 3.93928 20.0041 4.30778 20.0041H18.9744C19.3429 20.0041 19.6411 20.3026 19.6411 20.6708C19.6411 21.0389 19.3429 21.3374 18.9744 21.3374Z" fill="#4C241D"/>
<path d="M18.9744 25.3372H4.30778C3.93928 25.3372 3.64111 25.0387 3.64111 24.6705C3.64111 24.3023 3.93928 24.0038 4.30778 24.0038H18.9744C19.3429 24.0038 19.6411 24.3023 19.6411 24.6705C19.6411 25.0387 19.3429 25.3372 18.9744 25.3372Z" fill="#4C241D"/>
<path d="M20.6406 11.3373H19.6406V10.3373C19.6406 9.78498 19.193 9.33731 18.6406 9.33731C18.0883 9.33731 17.6406 9.78498 17.6406 10.3373V11.3373H16.6406C16.0883 11.3373 15.6406 11.785 15.6406 12.3373C15.6406 12.8896 16.0883 13.3373 16.6406 13.3373H17.6406V14.3373C17.6406 14.8896 18.0883 15.3373 18.6406 15.3373C19.193 15.3373 19.6406 14.8896 19.6406 14.3373V13.3373H20.6406C21.193 13.3373 21.6406 12.8896 21.6406 12.3373C21.6406 11.7851 21.193 11.3373 20.6406 11.3373Z" fill="#C1DBDC"/>
<path d="M18.6408 16.0039C17.7215 16.0039 16.9741 15.2563 16.9741 14.3373V14.0039H16.6408C15.7215 14.0039 14.9741 13.2563 14.9741 12.3373C14.9741 11.4183 15.7215 10.6706 16.6408 10.6706H16.9741V10.3373C16.9741 9.41826 17.7215 8.67059 18.6408 8.67059C19.5601 8.67059 20.3075 9.41826 20.3075 10.3373V10.6706H20.6408C21.5601 10.6706 22.3075 11.4183 22.3075 12.3373C22.3075 13.2563 21.5601 14.0039 20.6408 14.0039H20.3075V14.3373C20.3075 15.2563 19.5601 16.0039 18.6408 16.0039ZM16.6408 12.0039C16.4571 12.0039 16.3075 12.1533 16.3075 12.3373C16.3075 12.5213 16.4571 12.6706 16.6408 12.6706H17.6408C18.0093 12.6706 18.3075 12.9691 18.3075 13.3373V14.3373C18.3075 14.5213 18.4571 14.6706 18.6408 14.6706C18.8245 14.6706 18.9741 14.5213 18.9741 14.3373V13.3373C18.9741 12.9691 19.2723 12.6706 19.6408 12.6706H20.6408C20.8245 12.6706 20.9741 12.5213 20.9741 12.3373C20.9741 12.1533 20.8245 12.0039 20.6408 12.0039H19.6408C19.2723 12.0039 18.9741 11.7054 18.9741 11.3373V10.3373C18.9741 10.1533 18.8245 10.0039 18.6408 10.0039C18.4571 10.0039 18.3075 10.1533 18.3075 10.3373V11.3373C18.3075 11.7054 18.0093 12.0039 17.6408 12.0039H16.6408Z" fill="#4C241D"/>
<path d="M34.9793 12.2134C35.3729 12.2134 35.692 11.8944 35.692 11.5008C35.692 11.1072 35.3729 10.7881 34.9793 10.7881C34.5857 10.7881 34.2666 11.1072 34.2666 11.5008C34.2666 11.8944 34.5857 12.2134 34.9793 12.2134Z" fill="#4C241D"/>
<path d="M14.3206 32.2206C14.3206 31.6881 13.9219 31.2108 13.3901 31.1829C12.8229 31.1533 12.3539 31.6043 12.3539 32.1649V32.2206C12.3539 32.5714 12.1699 32.8874 11.8837 33.0904C11.5831 33.3036 11.4024 33.6734 11.4642 34.0834C11.5267 34.4983 11.8542 34.8468 12.2654 34.9301C12.4507 34.9676 12.6294 34.9553 12.7907 34.9041C13.1506 34.7899 13.5237 34.7899 13.8834 34.9041C14.0447 34.9553 14.2236 34.9678 14.4089 34.9301C14.8201 34.8468 15.1476 34.4984 15.2101 34.0834C15.2719 33.6734 15.0912 33.3036 14.7906 33.0904C14.5046 32.8874 14.3206 32.5713 14.3206 32.2206Z" fill="white"/>
<path d="M12.4796 35.618C12.3644 35.618 12.2484 35.6067 12.1333 35.5835C11.4438 35.4435 10.9106 34.8807 10.8051 34.1825C10.7088 33.5442 10.9751 32.9172 11.4984 32.5462C11.6183 32.4615 11.6873 32.3427 11.6873 32.2207C11.6873 31.7145 11.8748 31.2783 12.2016 30.968C12.5329 30.6528 12.9848 30.4947 13.4249 30.5172C14.3013 30.563 14.9874 31.3115 14.9874 32.2207C14.9874 32.3423 15.0564 32.4615 15.1769 32.5472C15.6997 32.917 15.9652 33.5437 15.8702 34.1817C15.7647 34.8808 15.2309 35.4437 14.5414 35.5833C14.2536 35.6407 13.9561 35.6263 13.6828 35.5397C13.4536 35.4667 13.2206 35.467 12.9926 35.5393C12.8279 35.5917 12.6541 35.618 12.4796 35.618ZM13.3376 31.8482C13.2283 31.8482 13.1546 31.9018 13.1194 31.935C13.0823 31.9702 13.0204 32.0463 13.0204 32.1648C13.0204 32.7723 12.7398 33.3005 12.2691 33.6342C12.1571 33.7137 12.1024 33.8442 12.1239 33.9835C12.1448 34.1232 12.2626 34.2492 12.3981 34.2765C12.4658 34.2898 12.5296 34.2875 12.5889 34.2683C13.0779 34.113 13.5954 34.1123 14.0856 34.2683C14.1454 34.2878 14.2106 34.2905 14.2769 34.2762C14.4124 34.2488 14.5303 34.1232 14.5511 33.9838C14.5719 33.8448 14.5179 33.7137 14.4053 33.6345C13.9346 33.2995 13.6539 32.7712 13.6539 32.2205C13.6539 32.0275 13.5173 31.8568 13.3551 31.8485C13.3493 31.8482 13.3434 31.8482 13.3376 31.8482Z" fill="#4C241D"/>
<path d="M16.7306 32.8152C17.2946 32.8152 17.7518 32.358 17.7518 31.794C17.7518 31.23 17.2946 30.7728 16.7306 30.7728C16.1667 30.7728 15.7095 31.23 15.7095 31.794C15.7095 32.358 16.1667 32.8152 16.7306 32.8152Z" fill="#4C241D"/>
<path d="M15.0344 30.2703C15.5983 30.2703 16.0555 29.8131 16.0555 29.2492C16.0555 28.6852 15.5983 28.228 15.0344 28.228C14.4704 28.228 14.0132 28.6852 14.0132 29.2492C14.0132 29.8131 14.4704 30.2703 15.0344 30.2703Z" fill="#4C241D"/>
<path d="M12.0651 30.2703C12.6291 30.2703 13.0863 29.8131 13.0863 29.2492C13.0863 28.6852 12.6291 28.228 12.0651 28.228C11.5011 28.228 11.0439 28.6852 11.0439 29.2492C11.0439 29.8131 11.5011 30.2703 12.0651 30.2703Z" fill="#4C241D"/>
<path d="M9.94402 32.8152C10.508 32.8152 10.9652 32.358 10.9652 31.794C10.9652 31.23 10.508 30.7728 9.94402 30.7728C9.38005 30.7728 8.92285 31.23 8.92285 31.794C8.92285 32.358 9.38005 32.8152 9.94402 32.8152Z" fill="#4C241D"/>
</svg>
