<svg width="40" height="34" viewBox="0 0 40 34" fill="none" xmlns="http://www.w3.org/2000/svg">
<path d="M38.1845 5.36525C37.6376 3.61906 36.2131 2.28768 34.4299 1.87725C24.8468 -0.328551 15.1531 -0.328551 5.57012 1.87725C3.7869 2.28768 2.36251 3.61906 1.81561 5.36525C-0.605412 13.0951 -0.60502 20.9058 1.81569 28.6348C2.36259 30.381 3.78706 31.7124 5.5702 32.1228C15.1532 34.3286 24.8468 34.3286 34.4299 32.1228C36.213 31.7124 37.6375 30.381 38.1844 28.6348C40.6052 20.9057 40.6054 13.0952 38.1845 5.36525Z" fill="url(#paint0_linear)"/>
<path d="M0.196777 20.8224C0.463601 23.4316 1.00235 26.0378 1.81568 28.6347C2.36258 30.3808 3.78705 31.7123 5.57019 32.1227C15.1532 34.3285 24.8467 34.3285 34.4299 32.1227C36.213 31.7123 37.6375 30.3809 38.1844 28.6347C38.9977 26.0378 39.5365 23.4316 39.8033 20.8224H0.196777Z" fill="url(#paint1_linear)"/>
<path d="M34.43 32.1227C36.2132 31.7123 37.6376 30.3809 38.1845 28.6347C38.4782 27.697 38.7355 26.7581 38.958 25.8182L28.9613 15.8215C28.8048 15.5914 28.5981 15.3865 28.3395 15.2243L17.674 8.69194C16.2781 7.81649 14.6213 8.66285 14.6213 10.3105V23.6893C14.6213 24.4341 14.8355 25.0464 15.3707 25.4138L23.6295 33.6727C27.2374 33.4654 30.8415 32.9487 34.43 32.1227Z" fill="url(#paint2_linear)"/>
<path d="M28.3395 15.2244L17.6739 8.53511C16.2781 7.65966 14.4644 8.66303 14.4644 10.3107V23.6894C14.4644 25.3371 16.2781 26.3405 17.6739 25.4651L28.3395 18.7757C29.6492 17.9542 29.6492 16.0459 28.3395 15.2244Z" fill="url(#paint3_linear)"/>
<defs>
<linearGradient id="paint0_linear" x1="9.85851" y1="6.85843" x2="30.7689" y2="27.7689" gradientUnits="userSpaceOnUse">
<stop stop-color="#FF637B"/>
<stop offset="1" stop-color="#F90217"/>
</linearGradient>
<linearGradient id="paint1_linear" x1="20.0001" y1="25.3921" x2="20.0001" y2="33.4767" gradientUnits="userSpaceOnUse">
<stop stop-color="#F90217" stop-opacity="0"/>
<stop offset="0.2669" stop-color="#E7010F" stop-opacity="0.267"/>
<stop offset="0.7232" stop-color="#CE0004" stop-opacity="0.723"/>
<stop offset="1" stop-color="#C50000"/>
</linearGradient>
<linearGradient id="paint2_linear" x1="30.5269" y1="30.3981" x2="22.8673" y2="19.6903" gradientUnits="userSpaceOnUse">
<stop stop-color="#F90217" stop-opacity="0"/>
<stop offset="0.2669" stop-color="#E7010F" stop-opacity="0.267"/>
<stop offset="0.7232" stop-color="#CE0004" stop-opacity="0.723"/>
<stop offset="1" stop-color="#C50000"/>
</linearGradient>
<linearGradient id="paint3_linear" x1="17.7109" y1="16.1626" x2="22.3391" y2="20.7907" gradientUnits="userSpaceOnUse">
<stop stop-color="#EBEFF0"/>
<stop offset="1" stop-color="#E3E5E4"/>
</linearGradient>
</defs>
</svg>
